<svg xmlns="http://www.w3.org/2000/svg" width="1200" height="630" viewBox="0 0 1200 630">
    <rect width="1200" height="630" fill="#ffffff"/>
    <g transform="translate(64 64) scale(1.35)"><path d="M14 4C8.5 4 4 8.5 4 14C4 20 8 24 14 24V18C11.8 18 10 16.2 10 14C10 11.8 11.8 10 14 10ZM18 8C23.5 8 28 12.5 28 18C28 24 24 28 18 28V22C20.2 22 22 20.2 22 18C22 15.8 20.2 14 18 14Z" fill="#75648f"/></g>
    <g transform="translate(118 63) scale(1.14)"><path d="M9.1 19.69L8.51 19.85Q8.51 17.22 9.21 15.48Q9.9 13.74 11.08 12.88Q12.26 12.02 13.63 12.02L13.63 12.02Q15.24 12.02 16.12 13.01Q17 14 17 15.85L17 15.85Q17 17.46 16.34 18.25Q15.68 19.05 14.6 19.05L14.6 19.05Q13.52 19.05 12.97 18.49Q12.41 17.93 12.41 16.95L12.41 16.95L12.43 16.27Q12.43 15.74 12.16 15.48Q11.9 15.23 11.44 15.23L11.44 15.23Q10.82 15.23 10.3 15.71Q9.77 16.2 9.44 17.18Q9.1 18.17 9.1 19.69L9.1 19.69M8.86 13.29L8.86 13.29L9.1 17.51L9.1 25.98Q9.1 26.51 9.3 26.83Q9.5 27.15 10.01 27.21L10.01 27.21L11.42 27.43Q11.84 27.5 12.05 27.75Q12.26 27.99 12.26 28.36L12.26 28.36Q12.26 28.73 12.01 28.97Q11.75 29.22 11.24 29.22L11.24 29.22L3.17 29.22Q2.71 29.22 2.45 28.98Q2.18 28.74 2.18 28.34L2.18 28.34Q2.18 28.01 2.35 27.81Q2.51 27.61 2.82 27.46L2.82 27.46L3.45 27.28Q3.76 27.15 3.91 26.88Q4.07 26.6 4.07 26L4.07 26L4.07 16.65Q4.07 16.09 3.92 15.87Q3.77 15.65 3.46 15.57L3.46 15.57L2.62 15.48Q2.29 15.39 2.15 15.2Q2 15.01 2 14.71L2 14.71Q2 14.38 2.21 14.16Q2.42 13.95 2.9 13.74L2.9 13.74L6.41 12.55Q7.03 12.37 7.4 12.24Q7.76 12.12 8.04 12.12L8.04 12.12Q8.37 12.12 8.59 12.38Q8.8 12.65 8.86 13.29M25.38 3.08L25.38 3.08L25.38 26Q25.38 26.62 25.51 26.91Q25.63 27.21 25.96 27.35L25.96 27.35L26.62 27.54Q27.13 27.83 27.13 28.36L27.13 28.36Q27.13 29.22 26.2 29.22L26.2 29.22L19.4 29.22Q18.96 29.22 18.69 28.98Q18.43 28.74 18.43 28.34L18.43 28.34Q18.43 27.99 18.58 27.8Q18.74 27.61 19.07 27.46L19.07 27.46L19.67 27.28Q20 27.13 20.15 26.86Q20.29 26.59 20.29 25.98L20.29 25.98L20.29 6.5Q20.29 6.01 20.16 5.79Q20.04 5.57 19.73 5.46L19.73 5.46L18.85 5.4Q18.52 5.29 18.38 5.1Q18.24 4.91 18.24 4.62L18.24 4.62Q18.24 4.29 18.44 4.06Q18.63 3.83 19.12 3.66L19.12 3.66L22.65 2.46Q23.29 2.22 23.67 2.11Q24.04 2 24.37 2L24.37 2Q24.88 2 25.13 2.3Q25.38 2.6 25.38 3.08M25.54 16.78L24.88 17.38L24.01 16.41L24.77 15.7Q26.84 13.74 28.42 12.88Q30.01 12.02 31.41 12.02L31.41 12.02Q33.48 12.02 34.6 13.34Q35.71 14.66 35.99 17.04L35.99 17.04L37.05 25.96Q37.1 26.59 37.23 26.86Q37.36 27.13 37.67 27.3L37.67 27.3L38.26 27.46Q38.59 27.61 38.74 27.8Q38.9 27.99 38.9 28.34L38.9 28.34Q38.9 28.74 38.63 28.98Q38.37 29.22 37.89 29.22L37.89 29.22L31.05 29.22Q30.1 29.22 30.1 28.36L30.1 28.36Q30.1 27.81 30.63 27.54L30.63 27.54L31.27 27.35Q31.62 27.21 31.8 26.92Q31.98 26.64 31.89 26L31.89 26L30.96 18.21Q30.79 16.76 30.23 16.05Q29.68 15.34 28.56 15.34L28.56 15.34Q27.92 15.34 27.16 15.67Q26.4 16.01 25.54 16.78L25.54 16.78M47.02 16.36L51.21 26.55L48.43 31.74L41.46 15.98Q41.11 15.13 40.73 14.79Q40.34 14.44 39.72 14.22L39.72 14.22Q39.39 14.04 39.23 13.84Q39.06 13.63 39.06 13.34L39.06 13.34Q39.06 12.9 39.35 12.67Q39.65 12.45 40.09 12.45L40.09 12.45L47.95 12.45Q48.37 12.45 48.65 12.66Q48.92 12.88 48.92 13.3L48.92 13.3Q48.92 13.65 48.73 13.85Q48.54 14.05 48.15 14.2L48.15 14.2L47.44 14.35Q46.84 14.55 46.73 15.01Q46.63 15.46 47.02 16.36L47.02 16.36M47.48 32.35L47.48 32.35L48.65 29.44L49.49 27.87L53.9 16.52Q54.24 15.59 54.12 15.1Q53.99 14.6 53.31 14.4L53.31 14.4L52.56 14.2Q52.21 14.07 52.04 13.86Q51.87 13.65 51.87 13.32L51.87 13.32Q51.87 12.9 52.13 12.67Q52.4 12.45 52.87 12.45L52.87 12.45L57.65 12.45Q58.12 12.45 58.4 12.66Q58.67 12.88 58.67 13.3L58.67 13.3Q58.67 13.58 58.52 13.81Q58.38 14.04 58.01 14.2L58.01 14.2Q57.26 14.46 56.84 14.9Q56.42 15.34 56.04 16.38L56.04 16.38L49.73 31.91Q48.83 34.16 48 35.48Q47.16 36.81 46.19 37.41Q45.21 38 43.84 38L43.84 38Q41.79 38 40.6 36.85Q39.41 35.7 39.41 33.98L39.41 33.98Q39.41 32.84 39.98 32.19Q40.56 31.54 41.48 31.54L41.48 31.54Q42.32 31.54 42.77 32.05Q43.23 32.57 43.62 33.5L43.62 33.5L43.87 34.25Q44.02 34.84 44.34 35.16Q44.66 35.48 45.08 35.48L45.08 35.48Q45.5 35.48 45.87 35.19Q46.25 34.91 46.63 34.21Q47 33.52 47.48 32.35M66.57 13.2L66.57 13.2L66.57 26.02Q66.57 26.64 66.71 26.92Q66.85 27.21 67.16 27.34L67.16 27.34L67.82 27.54Q68.31 27.83 68.31 28.36L68.31 28.36Q68.31 29.22 67.36 29.22L67.36 29.22L60.61 29.22Q60.15 29.22 59.89 28.98Q59.62 28.74 59.62 28.34L59.62 28.34Q59.62 28.01 59.78 27.8Q59.93 27.59 60.26 27.46L60.26 27.46L60.87 27.28Q61.2 27.13 61.34 26.87Q61.49 26.6 61.49 26L61.49 26L61.49 16.62Q61.49 16.12 61.35 15.91Q61.21 15.7 60.9 15.59L60.9 15.59L60.04 15.54Q59.75 15.39 59.59 15.21Q59.42 15.02 59.42 14.71L59.42 14.71Q59.42 14.4 59.62 14.17Q59.82 13.95 60.34 13.78L60.34 13.78L63.85 12.55Q64.47 12.32 64.84 12.22Q65.2 12.12 65.57 12.12L65.57 12.12Q66.04 12.12 66.31 12.4Q66.57 12.68 66.57 13.2M66.76 16.82L66.1 17.46L65.22 16.47L66.01 15.76Q68.09 13.74 69.75 12.88Q71.4 12.02 72.88 12.02L72.88 12.02Q75.02 12.02 76.33 13.41Q77.64 14.8 77.64 17.27L77.64 17.27L77.64 26Q77.64 26.66 77.78 26.93Q77.91 27.21 78.24 27.35L78.24 27.35L78.83 27.54Q79.36 27.81 79.36 28.36L79.36 28.36Q79.36 29.22 78.41 29.22L78.41 29.22L71.75 29.22Q70.78 29.22 70.78 28.36L70.78 28.36Q70.78 27.83 71.35 27.54L71.35 27.54L71.95 27.34Q72.3 27.23 72.44 26.92Q72.57 26.62 72.57 25.95L72.57 25.95L72.57 18.28Q72.57 16.85 71.89 16.09Q71.2 15.34 70.05 15.34L70.05 15.34Q69.26 15.34 68.45 15.68Q67.63 16.03 66.76 16.82L66.76 16.82M77.75 16.76L77.13 17.38L76.29 16.41L77.02 15.65Q78.98 13.74 80.53 12.88Q82.09 12.02 83.48 12.02L83.48 12.02Q85.52 12.02 86.68 13.36Q87.83 14.7 88.1 17.05L88.1 17.05L89.16 25.98Q89.22 26.6 89.36 26.88Q89.49 27.15 89.77 27.3L89.77 27.3L90.35 27.48Q90.65 27.61 90.83 27.8Q91.01 27.99 91.01 28.34L91.01 28.34Q91.01 28.74 90.73 28.98Q90.45 29.22 89.99 29.22L89.99 29.22L83.2 29.22Q82.27 29.22 82.27 28.36L82.27 28.36Q82.27 27.83 82.82 27.54L82.82 27.54L83.38 27.34Q83.73 27.21 83.91 26.91Q84.1 26.62 84.01 25.98L84.01 25.98L83.11 18.24Q82.91 16.82 82.34 16.08Q81.77 15.34 80.71 15.34L80.71 15.34Q80.02 15.34 79.3 15.67Q78.59 16.01 77.75 16.76L77.75 16.76M108.34 18.68L108.34 18.68Q108.34 19.69 107.77 20.22Q107.2 20.75 106.16 20.75L106.16 20.75L95.48 20.75L95.48 19.25L102.28 19.25Q103.2 19.25 103.2 18.37L103.2 18.37Q103.2 16.25 102.37 15.16Q101.55 14.07 100.3 14.07L100.3 14.07Q99.24 14.07 98.47 14.67Q97.69 15.26 97.23 16.45Q96.77 17.64 96.77 19.38L96.77 19.38Q96.77 22.74 98.34 24.45Q99.9 26.15 102.43 26.15L102.43 26.15Q104 26.15 105.17 25.43Q106.34 24.72 106.95 23.6L106.95 23.6Q107.2 23.31 107.39 23.19Q107.59 23.07 107.79 23.09L107.79 23.09Q108.01 23.09 108.17 23.29Q108.34 23.49 108.32 23.88L108.32 23.88Q108.26 25.4 107.29 26.7Q106.32 28.01 104.65 28.82Q102.98 29.62 100.78 29.62L100.78 29.62Q98.18 29.62 96.23 28.56Q94.29 27.5 93.22 25.58Q92.15 23.66 92.15 21.06L92.15 21.06Q92.15 18.45 93.21 16.41Q94.27 14.38 96.24 13.2Q98.22 12.01 100.96 12.01L100.96 12.01Q103.23 12.01 104.88 12.89Q106.52 13.78 107.43 15.28Q108.34 16.78 108.34 18.68" fill="#262626"/></g>
    <g fill="#262626" transform="translate(64 302)"><path d="M370 -16Q274 -16 200 28.5Q126 73 84.5 155.5Q43 238 43 354Q43 468 84 551.5Q125 635 198.5 680.5Q272 726 371 726Q505 726 579 659Q653 592 676 473L551 467Q537 538 492.5 579Q448 620 371 620Q309 620 263 587.5Q217 555 192 495.5Q167 436 167 354Q167 272 192.5 212.5Q218 153 263.5 121.5Q309 90 370 90Q453 90 498 134.5Q543 179 555 257L680 250Q667 169 627.5 109Q588 49 523 16.5Q458 -16 370 -16Z" transform="translate(0 0) scale(0.054 -0.054)"/><path d="M224 -12Q141 -12 90.5 26.5Q40 65 40 133Q40 202 82.5 241Q125 280 212 297L392 332Q392 391 365 421Q338 451 284 451Q235 451 207 428.5Q179 406 169 365L49 371Q65 453 126 499Q187 545 284 545Q395 545 452 487.5Q509 430 509 325L509 124Q509 104 516.5 96Q524 88 539 88L557 88L557 0Q551 -2 539 -3Q527 -4 514 -4Q480 -4 455 7Q430 18 416.5 44Q403 70 403 114L414 108Q406 73 379.5 45.5Q353 18 313 3Q273 -12 224 -12ZM246 76Q291 76 324 94Q357 112 374.5 143.5Q392 175 392 216L392 248L246 219Q200 210 181 192Q162 174 162 144Q162 112 184 94Q206 76 246 76Z" transform="translate(38.458800000000004 0) scale(0.054 -0.054)"/><path d="M73 0L73 533L179 533L183 387L169 394Q178 447 203 480.5Q228 514 264 529.5Q300 545 342 545Q402 545 442 519Q482 493 502.5 447.5Q523 402 523 343L523 0L406 0L406 306Q406 352 396.5 383.5Q387 415 365.5 431.5Q344 448 309 448Q255 448 222.5 411.5Q190 375 190 306L190 0Z" transform="translate(69.26039999999999 0) scale(0.054 -0.054)"/><path d="M216 0L21 533L146 533L286 118L427 533L551 533L356 0Z" transform="translate(99.6732 0) scale(0.054 -0.054)"/><path d="M224 -12Q141 -12 90.5 26.5Q40 65 40 133Q40 202 82.5 241Q125 280 212 297L392 332Q392 391 365 421Q338 451 284 451Q235 451 207 428.5Q179 406 169 365L49 371Q65 453 126 499Q187 545 284 545Q395 545 452 487.5Q509 430 509 325L509 124Q509 104 516.5 96Q524 88 539 88L557 88L557 0Q551 -2 539 -3Q527 -4 514 -4Q480 -4 455 7Q430 18 416.5 44Q403 70 403 114L414 108Q406 73 379.5 45.5Q353 18 313 3Q273 -12 224 -12ZM246 76Q291 76 324 94Q357 112 374.5 143.5Q392 175 392 216L392 248L246 219Q200 210 181 192Q162 174 162 144Q162 112 184 94Q206 76 246 76Z" transform="translate(129.195 0) scale(0.054 -0.054)"/><path d="M284 -12Q204 -12 151.5 11Q99 34 71.5 75Q44 116 40 168L161 174Q168 130 196 105.5Q224 81 284 81Q331 81 356.5 96.5Q382 112 382 145Q382 164 373 176.5Q364 189 338.5 198.5Q313 208 264 217Q185 231 140 251.5Q95 272 77 303Q59 334 59 378Q59 452 115.5 498.5Q172 545 279 545Q354 545 402.5 520.5Q451 496 475.5 456Q500 416 505 368L385 362Q384 387 372.5 407.5Q361 428 338 440Q315 452 277 452Q229 452 204.5 432.5Q180 413 180 383Q180 360 190 345.5Q200 331 223.5 322Q247 313 289 306Q370 294 417 273Q464 252 483.5 221Q503 190 503 146Q503 71 443 29.5Q383 -12 284 -12Z" transform="translate(159.6942 0) scale(0.054 -0.054)"/><path d="" transform="translate(189.11880000000002 0) scale(0.054 -0.054)"/><path d="M298 -12Q220 -12 162 22.5Q104 57 72 119.5Q40 182 40 267Q40 351 72 413Q104 475 162 510Q220 545 298 545Q364 545 416 521.5Q468 498 500.5 454.5Q533 411 541 348L420 341Q412 393 379 420Q346 447 298 447Q234 447 198 399Q162 351 162 267Q162 181 198 133.5Q234 86 298 86Q347 86 380 114Q413 142 420 199L541 193Q533 131 501 84.5Q469 38 417 13Q365 -12 298 -12Z" transform="translate(202.03560000000002 0) scale(0.054 -0.054)"/><path d="M298 -12Q221 -12 162.5 22.5Q104 57 72 119.5Q40 182 40 267Q40 352 72 414Q104 476 162.5 510.5Q221 545 298 545Q376 545 433.5 510.5Q491 476 523 414Q555 352 555 267Q555 182 523 119.5Q491 57 433.5 22.5Q376 -12 298 -12ZM298 86Q363 86 398.5 133.5Q434 181 434 267Q434 351 398.5 399Q363 447 298 447Q234 447 198 399Q162 351 162 267Q162 181 198 133.5Q234 86 298 86Z" transform="translate(232.37279999999998 0) scale(0.054 -0.054)"/><path d="M73 0L73 533L179 533L183 387L169 394Q178 447 203 480.5Q228 514 264 529.5Q300 545 342 545Q402 545 442 519Q482 493 502.5 447.5Q523 402 523 343L523 0L406 0L406 306Q406 352 396.5 383.5Q387 415 365.5 431.5Q344 448 309 448Q255 448 222.5 411.5Q190 375 190 306L190 0Z" transform="translate(263.9898 0) scale(0.054 -0.054)"/><path d="M216 0L21 533L146 533L286 118L427 533L551 533L356 0Z" transform="translate(294.40259999999995 0) scale(0.054 -0.054)"/><path d="M297 -12Q219 -12 161 22.5Q103 57 71.5 119.5Q40 182 40 267Q40 351 71.5 413Q103 475 160 510Q217 545 294 545Q369 545 425 511.5Q481 478 512 414.5Q543 351 543 261L543 233L162 233Q166 159 202 122Q238 85 298 85Q344 85 373.5 105.5Q403 126 414 162L535 154Q514 78 451 33Q388 -12 297 -12ZM162 316L420 316Q416 384 381.5 416.5Q347 449 294 449Q241 449 206 415Q171 381 162 316Z" transform="translate(323.838 0) scale(0.054 -0.054)"/><path d="M73 0L73 533L181 533L186 388L176 391Q187 465 220.5 499Q254 533 311 533L361 533L361 431L311 431Q270 431 243.5 418Q217 405 203.5 379Q190 353 190 311L190 0Z" transform="translate(354.7908 0) scale(0.054 -0.054)"/><path d="M284 -12Q204 -12 151.5 11Q99 34 71.5 75Q44 116 40 168L161 174Q168 130 196 105.5Q224 81 284 81Q331 81 356.5 96.5Q382 112 382 145Q382 164 373 176.5Q364 189 338.5 198.5Q313 208 264 217Q185 231 140 251.5Q95 272 77 303Q59 334 59 378Q59 452 115.5 498.5Q172 545 279 545Q354 545 402.5 520.5Q451 496 475.5 456Q500 416 505 368L385 362Q384 387 372.5 407.5Q361 428 338 440Q315 452 277 452Q229 452 204.5 432.5Q180 413 180 383Q180 360 190 345.5Q200 331 223.5 322Q247 313 289 306Q370 294 417 273Q464 252 483.5 221Q503 190 503 146Q503 71 443 29.5Q383 -12 284 -12Z" transform="translate(374.328 0) scale(0.054 -0.054)"/><path d="M224 -12Q141 -12 90.5 26.5Q40 65 40 133Q40 202 82.5 241Q125 280 212 297L392 332Q392 391 365 421Q338 451 284 451Q235 451 207 428.5Q179 406 169 365L49 371Q65 453 126 499Q187 545 284 545Q395 545 452 487.5Q509 430 509 325L509 124Q509 104 516.5 96Q524 88 539 88L557 88L557 0Q551 -2 539 -3Q527 -4 514 -4Q480 -4 455 7Q430 18 416.5 44Q403 70 403 114L414 108Q406 73 379.5 45.5Q353 18 313 3Q273 -12 224 -12ZM246 76Q291 76 324 94Q357 112 374.5 143.5Q392 175 392 216L392 248L246 219Q200 210 181 192Q162 174 162 144Q162 112 184 94Q206 76 246 76Z" transform="translate(403.7418 0) scale(0.054 -0.054)"/><path d="M281 0Q204 0 167 36Q130 72 130 149L130 658L247 658L247 158Q247 121 263 107Q279 93 313 93L388 93L388 0ZM48 440L48 533L388 533L388 440Z" transform="translate(432.12420000000003 0) scale(0.054 -0.054)"/><path d="M73 0L73 533L190 533L190 0ZM70 607L70 717L192 717L192 607Z" transform="translate(453.9834 0) scale(0.054 -0.054)"/><path d="M298 -12Q221 -12 162.5 22.5Q104 57 72 119.5Q40 182 40 267Q40 352 72 414Q104 476 162.5 510.5Q221 545 298 545Q376 545 433.5 510.5Q491 476 523 414Q555 352 555 267Q555 182 523 119.5Q491 57 433.5 22.5Q376 -12 298 -12ZM298 86Q363 86 398.5 133.5Q434 181 434 267Q434 351 398.5 399Q363 447 298 447Q234 447 198 399Q162 351 162 267Q162 181 198 133.5Q234 86 298 86Z" transform="translate(467.6238 0) scale(0.054 -0.054)"/><path d="M73 0L73 533L179 533L183 387L169 394Q178 447 203 480.5Q228 514 264 529.5Q300 545 342 545Q402 545 442 519Q482 493 502.5 447.5Q523 402 523 343L523 0L406 0L406 306Q406 352 396.5 383.5Q387 415 365.5 431.5Q344 448 309 448Q255 448 222.5 411.5Q190 375 190 306L190 0Z" transform="translate(499.24080000000004 0) scale(0.054 -0.054)"/><path d="M284 -12Q204 -12 151.5 11Q99 34 71.5 75Q44 116 40 168L161 174Q168 130 196 105.5Q224 81 284 81Q331 81 356.5 96.5Q382 112 382 145Q382 164 373 176.5Q364 189 338.5 198.5Q313 208 264 217Q185 231 140 251.5Q95 272 77 303Q59 334 59 378Q59 452 115.5 498.5Q172 545 279 545Q354 545 402.5 520.5Q451 496 475.5 456Q500 416 505 368L385 362Q384 387 372.5 407.5Q361 428 338 440Q315 452 277 452Q229 452 204.5 432.5Q180 413 180 383Q180 360 190 345.5Q200 331 223.5 322Q247 313 289 306Q370 294 417 273Q464 252 483.5 221Q503 190 503 146Q503 71 443 29.5Q383 -12 284 -12Z" transform="translate(530.7444 0) scale(0.054 -0.054)"/><path d="M40 0L40 133L178 133L178 0Z" transform="translate(560.169 0) scale(0.054 -0.054)"/></g>
    <g fill="#737373" transform="translate(67 381)"><path d="M92 0L92 710L361 710Q436 710 490 684Q544 658 573.5 609.5Q603 561 603 495Q603 447 580.5 409.5Q558 372 523 350Q488 328 450 326L444 335Q509 335 546.5 305Q584 275 590 209L610 0L523 0L505 200Q501 244 473.5 265Q446 286 384 286L178 286L178 0ZM178 370L372 370Q437 370 475 403Q513 436 513 497Q513 559 474 592.5Q435 626 361 626L178 626Z" transform="translate(0 0) scale(0.021 -0.021)"/><path d="M287 -12Q212 -12 157.5 22Q103 56 73.5 118.5Q44 181 44 265Q44 349 73.5 411Q103 473 156.5 507.5Q210 542 283 542Q352 542 405 509.5Q458 477 487.5 415Q517 353 517 264L517 239L132 239Q137 154 177.5 111Q218 68 287 68Q339 68 372.5 92.5Q406 117 419 157L509 150Q488 79 429.5 33.5Q371 -12 287 -12ZM132 313L425 313Q419 390 380.5 426Q342 462 283 462Q222 462 182.5 424.5Q143 387 132 313Z" transform="translate(13.860000000000001 0) scale(0.021 -0.021)"/><path d="M215 0L22 530L114 530L268 86L422 530L514 530L321 0Z" transform="translate(25.116000000000003 0) scale(0.021 -0.021)"/><path d="M80 0L80 530L164 530L164 0ZM78 613L78 711L166 711L166 613Z" transform="translate(36.162 0) scale(0.021 -0.021)"/><path d="M287 -12Q212 -12 157.5 22Q103 56 73.5 118.5Q44 181 44 265Q44 349 73.5 411Q103 473 156.5 507.5Q210 542 283 542Q352 542 405 509.5Q458 477 487.5 415Q517 353 517 264L517 239L132 239Q137 154 177.5 111Q218 68 287 68Q339 68 372.5 92.5Q406 117 419 157L509 150Q488 79 429.5 33.5Q371 -12 287 -12ZM132 313L425 313Q419 390 380.5 426Q342 462 283 462Q222 462 182.5 424.5Q143 387 132 313Z" transform="translate(41.076 0) scale(0.021 -0.021)"/><path d="M186 0L22 530L114 530L238 88L364 530L454 530L580 88L705 530L797 530L633 0L527 0L409 403L291 0Z" transform="translate(52.332 0) scale(0.021 -0.021)"/><path d="" transform="translate(69.531 0) scale(0.021 -0.021)"/><path d="M80 0L80 530L157 530L160 396L148 400Q157 444 179.5 475.5Q202 507 235 524.5Q268 542 308 542Q377 542 420.5 504Q464 466 475 398L459 399Q467 445 488.5 476.5Q510 508 544 525Q578 542 622 542Q679 542 718 518.5Q757 495 777 450Q797 405 797 341L797 0L713 0L713 323Q713 395 685 431.5Q657 468 602 468Q565 468 537.5 450Q510 432 495 398.5Q480 365 480 317L480 0L396 0L396 317Q396 388 371 428Q346 468 287 468Q250 468 222.5 450Q195 432 179.5 398Q164 364 164 317L164 0Z" transform="translate(74.781 0) scale(0.021 -0.021)"/><path d="M287 -12Q212 -12 157.5 22Q103 56 73.5 118.5Q44 181 44 265Q44 349 73.5 411Q103 473 156.5 507.5Q210 542 283 542Q352 542 405 509.5Q458 477 487.5 415Q517 353 517 264L517 239L132 239Q137 154 177.5 111Q218 68 287 68Q339 68 372.5 92.5Q406 117 419 157L509 150Q488 79 429.5 33.5Q371 -12 287 -12ZM132 313L425 313Q419 390 380.5 426Q342 462 283 462Q222 462 182.5 424.5Q143 387 132 313Z" transform="translate(92.94600000000001 0) scale(0.021 -0.021)"/><path d="M273 -12Q200 -12 150.5 11Q101 34 74.5 74.5Q48 115 44 167L132 173Q140 125 171.5 96.5Q203 68 273 68Q327 68 356.5 85.5Q386 103 386 142Q386 163 376.5 177Q367 191 339 201.5Q311 212 257 222Q183 236 141 257Q99 278 82 308Q65 338 65 380Q65 451 117.5 496.5Q170 542 266 542Q336 542 380.5 517.5Q425 493 448 454Q471 415 476 372L388 366Q386 391 373 413Q360 435 334 448.5Q308 462 264 462Q207 462 180 440Q153 418 153 384Q153 358 163.5 341.5Q174 325 200.5 314.5Q227 304 273 296Q351 283 395 263Q439 243 456.5 213.5Q474 184 474 142Q474 69 417.5 28.5Q361 -12 273 -12Z" transform="translate(104.51700000000001 0) scale(0.021 -0.021)"/><path d="M273 -12Q200 -12 150.5 11Q101 34 74.5 74.5Q48 115 44 167L132 173Q140 125 171.5 96.5Q203 68 273 68Q327 68 356.5 85.5Q386 103 386 142Q386 163 376.5 177Q367 191 339 201.5Q311 212 257 222Q183 236 141 257Q99 278 82 308Q65 338 65 380Q65 451 117.5 496.5Q170 542 266 542Q336 542 380.5 517.5Q425 493 448 454Q471 415 476 372L388 366Q386 391 373 413Q360 435 334 448.5Q308 462 264 462Q207 462 180 440Q153 418 153 384Q153 358 163.5 341.5Q174 325 200.5 314.5Q227 304 273 296Q351 283 395 263Q439 243 456.5 213.5Q474 184 474 142Q474 69 417.5 28.5Q361 -12 273 -12Z" transform="translate(115.227 0) scale(0.021 -0.021)"/><path d="M223 -12Q141 -12 92.5 26Q44 64 44 132Q44 200 84 239Q124 278 211 294L399 329Q399 396 367.5 429Q336 462 273 462Q218 462 186 437.5Q154 413 142 367L53 374Q68 449 125.5 495.5Q183 542 273 542Q375 542 429 484.5Q483 427 483 326L483 107Q483 89 489.5 81.5Q496 74 511 74L532 74L532 0Q528 -1 519 -1.5Q510 -2 500 -2Q464 -2 441.5 9.5Q419 21 409 45.5Q399 70 399 110L409 108Q402 74 375 46.5Q348 19 308 3.5Q268 -12 223 -12ZM231 62Q284 62 321.5 82.5Q359 103 379 138.5Q399 174 399 218L399 256L227 224Q173 214 152.5 193.5Q132 173 132 140Q132 103 158.5 82.5Q185 62 231 62Z" transform="translate(126.23100000000001 0) scale(0.021 -0.021)"/><path d="M281 -162Q224 -162 178 -143Q132 -124 101 -89Q70 -54 59 -8L147 -2Q159 -39 189.5 -60.5Q220 -82 281 -82Q353 -82 391.5 -53Q430 -24 430 34L430 120Q411 78 369 53Q327 28 275 28Q208 28 155.5 61Q103 94 73.5 152Q44 210 44 285Q44 361 73 418.5Q102 476 153.5 509Q205 542 271 542Q327 542 371.5 516Q416 490 434 446L434 530L514 530L514 36Q514 -26 486 -70.5Q458 -115 406 -138.5Q354 -162 281 -162ZM279 108Q347 108 388 155.5Q429 203 430 285Q431 340 412.5 379.5Q394 419 359.5 440.5Q325 462 279 462Q209 462 170.5 414.5Q132 367 132 285Q132 203 171.5 155.5Q211 108 279 108Z" transform="translate(137.67600000000002 0) scale(0.021 -0.021)"/><path d="M287 -12Q212 -12 157.5 22Q103 56 73.5 118.5Q44 181 44 265Q44 349 73.5 411Q103 473 156.5 507.5Q210 542 283 542Q352 542 405 509.5Q458 477 487.5 415Q517 353 517 264L517 239L132 239Q137 154 177.5 111Q218 68 287 68Q339 68 372.5 92.5Q406 117 419 157L509 150Q488 79 429.5 33.5Q371 -12 287 -12ZM132 313L425 313Q419 390 380.5 426Q342 462 283 462Q222 462 182.5 424.5Q143 387 132 313Z" transform="translate(149.94 0) scale(0.021 -0.021)"/><path d="M273 -12Q200 -12 150.5 11Q101 34 74.5 74.5Q48 115 44 167L132 173Q140 125 171.5 96.5Q203 68 273 68Q327 68 356.5 85.5Q386 103 386 142Q386 163 376.5 177Q367 191 339 201.5Q311 212 257 222Q183 236 141 257Q99 278 82 308Q65 338 65 380Q65 451 117.5 496.5Q170 542 266 542Q336 542 380.5 517.5Q425 493 448 454Q471 415 476 372L388 366Q386 391 373 413Q360 435 334 448.5Q308 462 264 462Q207 462 180 440Q153 418 153 384Q153 358 163.5 341.5Q174 325 200.5 314.5Q227 304 273 296Q351 283 395 263Q439 243 456.5 213.5Q474 184 474 142Q474 69 417.5 28.5Q361 -12 273 -12Z" transform="translate(161.51100000000002 0) scale(0.021 -0.021)"/><path d="" transform="translate(172.431 0) scale(0.021 -0.021)"/><path d="M223 -12Q141 -12 92.5 26Q44 64 44 132Q44 200 84 239Q124 278 211 294L399 329Q399 396 367.5 429Q336 462 273 462Q218 462 186 437.5Q154 413 142 367L53 374Q68 449 125.5 495.5Q183 542 273 542Q375 542 429 484.5Q483 427 483 326L483 107Q483 89 489.5 81.5Q496 74 511 74L532 74L532 0Q528 -1 519 -1.5Q510 -2 500 -2Q464 -2 441.5 9.5Q419 21 409 45.5Q399 70 399 110L409 108Q402 74 375 46.5Q348 19 308 3.5Q268 -12 223 -12ZM231 62Q284 62 321.5 82.5Q359 103 379 138.5Q399 174 399 218L399 256L227 224Q173 214 152.5 193.5Q132 173 132 140Q132 103 158.5 82.5Q185 62 231 62Z" transform="translate(177.681 0) scale(0.021 -0.021)"/><path d="M80 0L80 530L157 530L160 395L150 404Q160 451 185 481.5Q210 512 245.5 527Q281 542 322 542Q383 542 422.5 515Q462 488 481.5 442.5Q501 397 501 341L501 0L417 0L417 317Q417 366 405.5 399.5Q394 433 369 450.5Q344 468 304 468Q243 468 203.5 429.5Q164 391 164 317L164 0Z" transform="translate(189.168 0) scale(0.021 -0.021)"/><path d="M268 -12Q199 -12 148.5 22Q98 56 71 118Q44 180 44 265Q44 350 71 412Q98 474 148.5 508Q199 542 268 542Q321 542 365 519.5Q409 497 431 456L431 710L515 710L515 0L439 0L436 80Q414 37 369 12.5Q324 -12 268 -12ZM285 68Q332 68 364.5 92Q397 116 414 160.5Q431 205 431 265Q431 327 414 371Q397 415 364.5 438.5Q332 462 285 462Q215 462 173.5 409.5Q132 357 132 265Q132 174 173.5 121Q215 68 285 68Z" transform="translate(201.11700000000002 0) scale(0.021 -0.021)"/><path d="" transform="translate(213.61200000000002 0) scale(0.021 -0.021)"/><path d="M287 -12Q213 -12 158.5 22Q104 56 74 118.5Q44 181 44 265Q44 349 74 411Q104 473 158.5 507.5Q213 542 287 542Q348 542 395.5 520.5Q443 499 473 458Q503 417 512 358L424 352Q415 405 378 433.5Q341 462 287 462Q214 462 173 409.5Q132 357 132 265Q132 173 173 120.5Q214 68 287 68Q341 68 378 98Q415 128 424 188L512 182Q503 123 473 79.5Q443 36 395.5 12Q348 -12 287 -12Z" transform="translate(218.86200000000002 0) scale(0.021 -0.021)"/><path d="M287 -12Q214 -12 159 22Q104 56 74 118.5Q44 181 44 265Q44 350 74 412Q104 474 159 508Q214 542 287 542Q360 542 414.5 508Q469 474 499 412Q529 350 529 265Q529 181 499 118.5Q469 56 414.5 22Q360 -12 287 -12ZM287 68Q360 68 400.5 120.5Q441 173 441 265Q441 357 400.5 409.5Q360 462 287 462Q214 462 173 409.5Q132 357 132 265Q132 173 173 120.5Q214 68 287 68Z" transform="translate(230.11800000000002 0) scale(0.021 -0.021)"/><path d="M80 0L80 530L157 530L160 395L150 404Q160 451 185 481.5Q210 512 245.5 527Q281 542 322 542Q383 542 422.5 515Q462 488 481.5 442.5Q501 397 501 341L501 0L417 0L417 317Q417 366 405.5 399.5Q394 433 369 450.5Q344 468 304 468Q243 468 203.5 429.5Q164 391 164 317L164 0Z" transform="translate(241.941 0) scale(0.021 -0.021)"/><path d="M274 0Q202 0 167.5 33Q133 66 133 136L133 654L217 654L217 138Q217 102 233 88Q249 74 282 74L358 74L358 0ZM55 456L55 530L358 530L358 456Z" transform="translate(253.30200000000002 0) scale(0.021 -0.021)"/><path d="M80 0L80 530L164 530L164 0ZM78 613L78 711L166 711L166 613Z" transform="translate(261.19800000000004 0) scale(0.021 -0.021)"/><path d="M80 0L80 530L157 530L160 395L150 404Q160 451 185 481.5Q210 512 245.5 527Q281 542 322 542Q383 542 422.5 515Q462 488 481.5 442.5Q501 397 501 341L501 0L417 0L417 317Q417 366 405.5 399.5Q394 433 369 450.5Q344 468 304 468Q243 468 203.5 429.5Q164 391 164 317L164 0Z" transform="translate(266.44800000000004 0) scale(0.021 -0.021)"/><path d="M254 -12Q175 -12 127.5 41.5Q80 95 80 189L80 530L164 530L164 212Q164 135 191.5 98.5Q219 62 276 62Q339 62 375 102.5Q411 143 411 214L411 530L495 530L495 0L415 0L415 131L428 124Q412 59 367 23.5Q322 -12 254 -12Z" transform="translate(278.334 0) scale(0.021 -0.021)"/><path d="M287 -12Q212 -12 157.5 22Q103 56 73.5 118.5Q44 181 44 265Q44 349 73.5 411Q103 473 156.5 507.5Q210 542 283 542Q352 542 405 509.5Q458 477 487.5 415Q517 353 517 264L517 239L132 239Q137 154 177.5 111Q218 68 287 68Q339 68 372.5 92.5Q406 117 419 157L509 150Q488 79 429.5 33.5Q371 -12 287 -12ZM132 313L425 313Q419 390 380.5 426Q342 462 283 462Q222 462 182.5 424.5Q143 387 132 313Z" transform="translate(290.199 0) scale(0.021 -0.021)"/><path d="" transform="translate(301.98 0) scale(0.021 -0.021)"/><path d="M287 -12Q213 -12 158.5 22Q104 56 74 118.5Q44 181 44 265Q44 349 74 411Q104 473 158.5 507.5Q213 542 287 542Q348 542 395.5 520.5Q443 499 473 458Q503 417 512 358L424 352Q415 405 378 433.5Q341 462 287 462Q214 462 173 409.5Q132 357 132 265Q132 173 173 120.5Q214 68 287 68Q341 68 378 98Q415 128 424 188L512 182Q503 123 473 79.5Q443 36 395.5 12Q348 -12 287 -12Z" transform="translate(307.23 0) scale(0.021 -0.021)"/><path d="M223 -12Q141 -12 92.5 26Q44 64 44 132Q44 200 84 239Q124 278 211 294L399 329Q399 396 367.5 429Q336 462 273 462Q218 462 186 437.5Q154 413 142 367L53 374Q68 449 125.5 495.5Q183 542 273 542Q375 542 429 484.5Q483 427 483 326L483 107Q483 89 489.5 81.5Q496 74 511 74L532 74L532 0Q528 -1 519 -1.5Q510 -2 500 -2Q464 -2 441.5 9.5Q419 21 409 45.5Q399 70 399 110L409 108Q402 74 375 46.5Q348 19 308 3.5Q268 -12 223 -12ZM231 62Q284 62 321.5 82.5Q359 103 379 138.5Q399 174 399 218L399 256L227 224Q173 214 152.5 193.5Q132 173 132 140Q132 103 158.5 82.5Q185 62 231 62Z" transform="translate(318.78000000000003 0) scale(0.021 -0.021)"/><path d="M80 0L80 530L157 530L160 395L150 404Q160 451 185 481.5Q210 512 245.5 527Q281 542 322 542Q383 542 422.5 515Q462 488 481.5 442.5Q501 397 501 341L501 0L417 0L417 317Q417 366 405.5 399.5Q394 433 369 450.5Q344 468 304 468Q243 468 203.5 429.5Q164 391 164 317L164 0Z" transform="translate(330.267 0) scale(0.021 -0.021)"/><path d="M215 0L22 530L114 530L268 86L422 530L514 530L321 0Z" transform="translate(341.754 0) scale(0.021 -0.021)"/><path d="M223 -12Q141 -12 92.5 26Q44 64 44 132Q44 200 84 239Q124 278 211 294L399 329Q399 396 367.5 429Q336 462 273 462Q218 462 186 437.5Q154 413 142 367L53 374Q68 449 125.5 495.5Q183 542 273 542Q375 542 429 484.5Q483 427 483 326L483 107Q483 89 489.5 81.5Q496 74 511 74L532 74L532 0Q528 -1 519 -1.5Q510 -2 500 -2Q464 -2 441.5 9.5Q419 21 409 45.5Q399 70 399 110L409 108Q402 74 375 46.5Q348 19 308 3.5Q268 -12 223 -12ZM231 62Q284 62 321.5 82.5Q359 103 379 138.5Q399 174 399 218L399 256L227 224Q173 214 152.5 193.5Q132 173 132 140Q132 103 158.5 82.5Q185 62 231 62Z" transform="translate(352.548 0) scale(0.021 -0.021)"/><path d="M273 -12Q200 -12 150.5 11Q101 34 74.5 74.5Q48 115 44 167L132 173Q140 125 171.5 96.5Q203 68 273 68Q327 68 356.5 85.5Q386 103 386 142Q386 163 376.5 177Q367 191 339 201.5Q311 212 257 222Q183 236 141 257Q99 278 82 308Q65 338 65 380Q65 451 117.5 496.5Q170 542 266 542Q336 542 380.5 517.5Q425 493 448 454Q471 415 476 372L388 366Q386 391 373 413Q360 435 334 448.5Q308 462 264 462Q207 462 180 440Q153 418 153 384Q153 358 163.5 341.5Q174 325 200.5 314.5Q227 304 273 296Q351 283 395 263Q439 243 456.5 213.5Q474 184 474 142Q474 69 417.5 28.5Q361 -12 273 -12Z" transform="translate(363.993 0) scale(0.021 -0.021)"/><path d="" transform="translate(374.913 0) scale(0.021 -0.021)"/><path d="M287 -12Q212 -12 157.5 22Q103 56 73.5 118.5Q44 181 44 265Q44 349 73.5 411Q103 473 156.5 507.5Q210 542 283 542Q352 542 405 509.5Q458 477 487.5 415Q517 353 517 264L517 239L132 239Q137 154 177.5 111Q218 68 287 68Q339 68 372.5 92.5Q406 117 419 157L509 150Q488 79 429.5 33.5Q371 -12 287 -12ZM132 313L425 313Q419 390 380.5 426Q342 462 283 462Q222 462 182.5 424.5Q143 387 132 313Z" transform="translate(380.163 0) scale(0.021 -0.021)"/><path d="M268 -12Q199 -12 148.5 22Q98 56 71 118Q44 180 44 265Q44 350 71 412Q98 474 148.5 508Q199 542 268 542Q321 542 365 519.5Q409 497 431 456L431 710L515 710L515 0L439 0L436 80Q414 37 369 12.5Q324 -12 268 -12ZM285 68Q332 68 364.5 92Q397 116 414 160.5Q431 205 431 265Q431 327 414 371Q397 415 364.5 438.5Q332 462 285 462Q215 462 173.5 409.5Q132 357 132 265Q132 174 173.5 121Q215 68 285 68Z" transform="translate(391.73400000000004 0) scale(0.021 -0.021)"/><path d="M80 0L80 530L164 530L164 0ZM78 613L78 711L166 711L166 613Z" transform="translate(403.809 0) scale(0.021 -0.021)"/><path d="M274 0Q202 0 167.5 33Q133 66 133 136L133 654L217 654L217 138Q217 102 233 88Q249 74 282 74L358 74L358 0ZM55 456L55 530L358 530L358 456Z" transform="translate(408.093 0) scale(0.021 -0.021)"/><path d="M273 -12Q200 -12 150.5 11Q101 34 74.5 74.5Q48 115 44 167L132 173Q140 125 171.5 96.5Q203 68 273 68Q327 68 356.5 85.5Q386 103 386 142Q386 163 376.5 177Q367 191 339 201.5Q311 212 257 222Q183 236 141 257Q99 278 82 308Q65 338 65 380Q65 451 117.5 496.5Q170 542 266 542Q336 542 380.5 517.5Q425 493 448 454Q471 415 476 372L388 366Q386 391 373 413Q360 435 334 448.5Q308 462 264 462Q207 462 180 440Q153 418 153 384Q153 358 163.5 341.5Q174 325 200.5 314.5Q227 304 273 296Q351 283 395 263Q439 243 456.5 213.5Q474 184 474 142Q474 69 417.5 28.5Q361 -12 273 -12Z" transform="translate(415.98900000000003 0) scale(0.021 -0.021)"/><path d="M44 0L44 113L157 113L157 0Z" transform="translate(426.90900000000005 0) scale(0.021 -0.021)"/></g>
    <g transform="translate(760 158)"><rect x="0" y="0" width="376" height="332" rx="12" fill="#ffffff" stroke="#e5e5e5" stroke-width="1.5"/><g fill="#262626" transform="translate(22 35)"><path d="M370 -16Q274 -16 200 28.5Q126 73 84.5 155.5Q43 238 43 354Q43 468 84 551.5Q125 635 198.5 680.5Q272 726 371 726Q505 726 579 659Q653 592 676 473L551 467Q537 538 492.5 579Q448 620 371 620Q309 620 263 587.5Q217 555 192 495.5Q167 436 167 354Q167 272 192.5 212.5Q218 153 263.5 121.5Q309 90 370 90Q453 90 498 134.5Q543 179 555 257L680 250Q667 169 627.5 109Q588 49 523 16.5Q458 -16 370 -16Z" transform="translate(0 0) scale(0.018 -0.018)"/><path d="M224 -12Q141 -12 90.5 26.5Q40 65 40 133Q40 202 82.5 241Q125 280 212 297L392 332Q392 391 365 421Q338 451 284 451Q235 451 207 428.5Q179 406 169 365L49 371Q65 453 126 499Q187 545 284 545Q395 545 452 487.5Q509 430 509 325L509 124Q509 104 516.5 96Q524 88 539 88L557 88L557 0Q551 -2 539 -3Q527 -4 514 -4Q480 -4 455 7Q430 18 416.5 44Q403 70 403 114L414 108Q406 73 379.5 45.5Q353 18 313 3Q273 -12 224 -12ZM246 76Q291 76 324 94Q357 112 374.5 143.5Q392 175 392 216L392 248L246 219Q200 210 181 192Q162 174 162 144Q162 112 184 94Q206 76 246 76Z" transform="translate(12.8196 0) scale(0.018 -0.018)"/><path d="M73 0L73 533L179 533L183 387L169 394Q178 447 203 480.5Q228 514 264 529.5Q300 545 342 545Q402 545 442 519Q482 493 502.5 447.5Q523 402 523 343L523 0L406 0L406 306Q406 352 396.5 383.5Q387 415 365.5 431.5Q344 448 309 448Q255 448 222.5 411.5Q190 375 190 306L190 0Z" transform="translate(23.086799999999997 0) scale(0.018 -0.018)"/><path d="M216 0L21 533L146 533L286 118L427 533L551 533L356 0Z" transform="translate(33.224399999999996 0) scale(0.018 -0.018)"/><path d="M224 -12Q141 -12 90.5 26.5Q40 65 40 133Q40 202 82.5 241Q125 280 212 297L392 332Q392 391 365 421Q338 451 284 451Q235 451 207 428.5Q179 406 169 365L49 371Q65 453 126 499Q187 545 284 545Q395 545 452 487.5Q509 430 509 325L509 124Q509 104 516.5 96Q524 88 539 88L557 88L557 0Q551 -2 539 -3Q527 -4 514 -4Q480 -4 455 7Q430 18 416.5 44Q403 70 403 114L414 108Q406 73 379.5 45.5Q353 18 313 3Q273 -12 224 -12ZM246 76Q291 76 324 94Q357 112 374.5 143.5Q392 175 392 216L392 248L246 219Q200 210 181 192Q162 174 162 144Q162 112 184 94Q206 76 246 76Z" transform="translate(43.065 0) scale(0.018 -0.018)"/><path d="M284 -12Q204 -12 151.5 11Q99 34 71.5 75Q44 116 40 168L161 174Q168 130 196 105.5Q224 81 284 81Q331 81 356.5 96.5Q382 112 382 145Q382 164 373 176.5Q364 189 338.5 198.5Q313 208 264 217Q185 231 140 251.5Q95 272 77 303Q59 334 59 378Q59 452 115.5 498.5Q172 545 279 545Q354 545 402.5 520.5Q451 496 475.5 456Q500 416 505 368L385 362Q384 387 372.5 407.5Q361 428 338 440Q315 452 277 452Q229 452 204.5 432.5Q180 413 180 383Q180 360 190 345.5Q200 331 223.5 322Q247 313 289 306Q370 294 417 273Q464 252 483.5 221Q503 190 503 146Q503 71 443 29.5Q383 -12 284 -12Z" transform="translate(53.2314 0) scale(0.018 -0.018)"/><path d="" transform="translate(63.0396 0) scale(0.018 -0.018)"/><path d="M224 -12Q141 -12 90.5 26.5Q40 65 40 133Q40 202 82.5 241Q125 280 212 297L392 332Q392 391 365 421Q338 451 284 451Q235 451 207 428.5Q179 406 169 365L49 371Q65 453 126 499Q187 545 284 545Q395 545 452 487.5Q509 430 509 325L509 124Q509 104 516.5 96Q524 88 539 88L557 88L557 0Q551 -2 539 -3Q527 -4 514 -4Q480 -4 455 7Q430 18 416.5 44Q403 70 403 114L414 108Q406 73 379.5 45.5Q353 18 313 3Q273 -12 224 -12ZM246 76Q291 76 324 94Q357 112 374.5 143.5Q392 175 392 216L392 248L246 219Q200 210 181 192Q162 174 162 144Q162 112 184 94Q206 76 246 76Z" transform="translate(67.34519999999999 0) scale(0.018 -0.018)"/><path d="M284 -12Q204 -12 151.5 11Q99 34 71.5 75Q44 116 40 168L161 174Q168 130 196 105.5Q224 81 284 81Q331 81 356.5 96.5Q382 112 382 145Q382 164 373 176.5Q364 189 338.5 198.5Q313 208 264 217Q185 231 140 251.5Q95 272 77 303Q59 334 59 378Q59 452 115.5 498.5Q172 545 279 545Q354 545 402.5 520.5Q451 496 475.5 456Q500 416 505 368L385 362Q384 387 372.5 407.5Q361 428 338 440Q315 452 277 452Q229 452 204.5 432.5Q180 413 180 383Q180 360 190 345.5Q200 331 223.5 322Q247 313 289 306Q370 294 417 273Q464 252 483.5 221Q503 190 503 146Q503 71 443 29.5Q383 -12 284 -12Z" transform="translate(77.51159999999999 0) scale(0.018 -0.018)"/><path d="M284 -12Q204 -12 151.5 11Q99 34 71.5 75Q44 116 40 168L161 174Q168 130 196 105.5Q224 81 284 81Q331 81 356.5 96.5Q382 112 382 145Q382 164 373 176.5Q364 189 338.5 198.5Q313 208 264 217Q185 231 140 251.5Q95 272 77 303Q59 334 59 378Q59 452 115.5 498.5Q172 545 279 545Q354 545 402.5 520.5Q451 496 475.5 456Q500 416 505 368L385 362Q384 387 372.5 407.5Q361 428 338 440Q315 452 277 452Q229 452 204.5 432.5Q180 413 180 383Q180 360 190 345.5Q200 331 223.5 322Q247 313 289 306Q370 294 417 273Q464 252 483.5 221Q503 190 503 146Q503 71 443 29.5Q383 -12 284 -12Z" transform="translate(87.13979999999998 0) scale(0.018 -0.018)"/><path d="M73 0L73 533L190 533L190 0ZM70 607L70 717L192 717L192 607Z" transform="translate(96.76799999999997 0) scale(0.018 -0.018)"/><path d="M284 -12Q204 -12 151.5 11Q99 34 71.5 75Q44 116 40 168L161 174Q168 130 196 105.5Q224 81 284 81Q331 81 356.5 96.5Q382 112 382 145Q382 164 373 176.5Q364 189 338.5 198.5Q313 208 264 217Q185 231 140 251.5Q95 272 77 303Q59 334 59 378Q59 452 115.5 498.5Q172 545 279 545Q354 545 402.5 520.5Q451 496 475.5 456Q500 416 505 368L385 362Q384 387 372.5 407.5Q361 428 338 440Q315 452 277 452Q229 452 204.5 432.5Q180 413 180 383Q180 360 190 345.5Q200 331 223.5 322Q247 313 289 306Q370 294 417 273Q464 252 483.5 221Q503 190 503 146Q503 71 443 29.5Q383 -12 284 -12Z" transform="translate(101.31479999999998 0) scale(0.018 -0.018)"/><path d="M281 0Q204 0 167 36Q130 72 130 149L130 658L247 658L247 158Q247 121 263 107Q279 93 313 93L388 93L388 0ZM48 440L48 533L388 533L388 440Z" transform="translate(110.61539999999998 0) scale(0.018 -0.018)"/><path d="M224 -12Q141 -12 90.5 26.5Q40 65 40 133Q40 202 82.5 241Q125 280 212 297L392 332Q392 391 365 421Q338 451 284 451Q235 451 207 428.5Q179 406 169 365L49 371Q65 453 126 499Q187 545 284 545Q395 545 452 487.5Q509 430 509 325L509 124Q509 104 516.5 96Q524 88 539 88L557 88L557 0Q551 -2 539 -3Q527 -4 514 -4Q480 -4 455 7Q430 18 416.5 44Q403 70 403 114L414 108Q406 73 379.5 45.5Q353 18 313 3Q273 -12 224 -12ZM246 76Q291 76 324 94Q357 112 374.5 143.5Q392 175 392 216L392 248L246 219Q200 210 181 192Q162 174 162 144Q162 112 184 94Q206 76 246 76Z" transform="translate(117.98819999999998 0) scale(0.018 -0.018)"/><path d="M73 0L73 533L179 533L183 387L169 394Q178 447 203 480.5Q228 514 264 529.5Q300 545 342 545Q402 545 442 519Q482 493 502.5 447.5Q523 402 523 343L523 0L406 0L406 306Q406 352 396.5 383.5Q387 415 365.5 431.5Q344 448 309 448Q255 448 222.5 411.5Q190 375 190 306L190 0Z" transform="translate(128.25539999999998 0) scale(0.018 -0.018)"/><path d="M281 0Q204 0 167 36Q130 72 130 149L130 658L247 658L247 158Q247 121 263 107Q279 93 313 93L388 93L388 0ZM48 440L48 533L388 533L388 440Z" transform="translate(138.30659999999997 0) scale(0.018 -0.018)"/></g><path d="M0 55L376 55" stroke="#e5e5e5" stroke-width="2" fill="none" stroke-linecap="round"/><rect x="138" y="82" width="216" height="44" rx="9" fill="#eeeaf4" stroke="#eeeaf4" stroke-width="1.5"/><g fill="#262626" transform="translate(157 109)"><path d="M364 -16Q269 -16 197 28.5Q125 73 85 156Q45 239 45 354Q45 469 85 552.5Q125 636 197 681Q269 726 364 726Q493 726 564 661Q635 596 657 484L566 478Q551 554 502 598Q453 642 364 642Q296 642 244.5 607.5Q193 573 164 508.5Q135 444 135 354Q135 264 164 200Q193 136 244.5 102Q296 68 364 68Q457 68 508 116.5Q559 165 572 248L663 242Q650 165 612 107Q574 49 511.5 16.5Q449 -16 364 -16Z" transform="translate(0 0) scale(0.016 -0.016)"/><path d="M80 0L80 530L154 530L158 396L150 399Q160 467 193.5 498.5Q227 530 283 530L335 530L335 450L284 450Q244 450 217.5 435.5Q191 421 177.5 392.5Q164 364 164 320L164 0Z" transform="translate(11.120000000000001 0) scale(0.016 -0.016)"/><path d="M287 -12Q212 -12 157.5 22Q103 56 73.5 118.5Q44 181 44 265Q44 349 73.5 411Q103 473 156.5 507.5Q210 542 283 542Q352 542 405 509.5Q458 477 487.5 415Q517 353 517 264L517 239L132 239Q137 154 177.5 111Q218 68 287 68Q339 68 372.5 92.5Q406 117 419 157L509 150Q488 79 429.5 33.5Q371 -12 287 -12ZM132 313L425 313Q419 390 380.5 426Q342 462 283 462Q222 462 182.5 424.5Q143 387 132 313Z" transform="translate(16.544 0) scale(0.016 -0.016)"/><path d="M223 -12Q141 -12 92.5 26Q44 64 44 132Q44 200 84 239Q124 278 211 294L399 329Q399 396 367.5 429Q336 462 273 462Q218 462 186 437.5Q154 413 142 367L53 374Q68 449 125.5 495.5Q183 542 273 542Q375 542 429 484.5Q483 427 483 326L483 107Q483 89 489.5 81.5Q496 74 511 74L532 74L532 0Q528 -1 519 -1.5Q510 -2 500 -2Q464 -2 441.5 9.5Q419 21 409 45.5Q399 70 399 110L409 108Q402 74 375 46.5Q348 19 308 3.5Q268 -12 223 -12ZM231 62Q284 62 321.5 82.5Q359 103 379 138.5Q399 174 399 218L399 256L227 224Q173 214 152.5 193.5Q132 173 132 140Q132 103 158.5 82.5Q185 62 231 62Z" transform="translate(25.584 0) scale(0.016 -0.016)"/><path d="M274 0Q202 0 167.5 33Q133 66 133 136L133 654L217 654L217 138Q217 102 233 88Q249 74 282 74L358 74L358 0ZM55 456L55 530L358 530L358 456Z" transform="translate(33.6 0) scale(0.016 -0.016)"/><path d="M287 -12Q212 -12 157.5 22Q103 56 73.5 118.5Q44 181 44 265Q44 349 73.5 411Q103 473 156.5 507.5Q210 542 283 542Q352 542 405 509.5Q458 477 487.5 415Q517 353 517 264L517 239L132 239Q137 154 177.5 111Q218 68 287 68Q339 68 372.5 92.5Q406 117 419 157L509 150Q488 79 429.5 33.5Q371 -12 287 -12ZM132 313L425 313Q419 390 380.5 426Q342 462 283 462Q222 462 182.5 424.5Q143 387 132 313Z" transform="translate(39.616 0) scale(0.016 -0.016)"/><path d="" transform="translate(48.592 0) scale(0.016 -0.016)"/><path d="M223 -12Q141 -12 92.5 26Q44 64 44 132Q44 200 84 239Q124 278 211 294L399 329Q399 396 367.5 429Q336 462 273 462Q218 462 186 437.5Q154 413 142 367L53 374Q68 449 125.5 495.5Q183 542 273 542Q375 542 429 484.5Q483 427 483 326L483 107Q483 89 489.5 81.5Q496 74 511 74L532 74L532 0Q528 -1 519 -1.5Q510 -2 500 -2Q464 -2 441.5 9.5Q419 21 409 45.5Q399 70 399 110L409 108Q402 74 375 46.5Q348 19 308 3.5Q268 -12 223 -12ZM231 62Q284 62 321.5 82.5Q359 103 379 138.5Q399 174 399 218L399 256L227 224Q173 214 152.5 193.5Q132 173 132 140Q132 103 158.5 82.5Q185 62 231 62Z" transform="translate(52.592 0) scale(0.016 -0.016)"/><path d="" transform="translate(61.408 0) scale(0.016 -0.016)"/><path d="M132 0L132 578Q132 637 166 673.5Q200 710 272 710L356 710L356 636L278 636Q247 636 231.5 619Q216 602 216 572L216 0ZM60 456L60 530L349 530L349 456ZM559 0Q513 0 484 24Q455 48 455 100L455 710L539 710L539 107Q539 91 547.5 82.5Q556 74 572 74L618 74L618 0Z" transform="translate(65.408 0) scale(0.016 -0.016)"/><path d="M287 -12Q214 -12 159 22Q104 56 74 118.5Q44 181 44 265Q44 350 74 412Q104 474 159 508Q214 542 287 542Q360 542 414.5 508Q469 474 499 412Q529 350 529 265Q529 181 499 118.5Q469 56 414.5 22Q360 -12 287 -12ZM287 68Q360 68 400.5 120.5Q441 173 441 265Q441 357 400.5 409.5Q360 462 287 462Q214 462 173 409.5Q132 357 132 265Q132 173 173 120.5Q214 68 287 68Z" transform="translate(75.584 0) scale(0.016 -0.016)"/><path d="M186 0L22 530L114 530L238 88L364 530L454 530L580 88L705 530L797 530L633 0L527 0L409 403L291 0Z" transform="translate(84.352 0) scale(0.016 -0.016)"/><path d="M287 -12Q213 -12 158.5 22Q104 56 74 118.5Q44 181 44 265Q44 349 74 411Q104 473 158.5 507.5Q213 542 287 542Q348 542 395.5 520.5Q443 499 473 458Q503 417 512 358L424 352Q415 405 378 433.5Q341 462 287 462Q214 462 173 409.5Q132 357 132 265Q132 173 173 120.5Q214 68 287 68Q341 68 378 98Q415 128 424 188L512 182Q503 123 473 79.5Q443 36 395.5 12Q348 -12 287 -12Z" transform="translate(97.04 0) scale(0.016 -0.016)"/><path d="M80 0L80 710L164 710L164 413L154 415Q164 459 188 487Q212 515 247 528.5Q282 542 324 542Q381 542 420.5 516.5Q460 491 480.5 445.5Q501 400 501 341L501 0L417 0L417 317Q417 394 389.5 431Q362 468 306 468Q242 468 203 429Q164 390 164 316L164 0Z" transform="translate(105.616 0) scale(0.016 -0.016)"/><path d="M223 -12Q141 -12 92.5 26Q44 64 44 132Q44 200 84 239Q124 278 211 294L399 329Q399 396 367.5 429Q336 462 273 462Q218 462 186 437.5Q154 413 142 367L53 374Q68 449 125.5 495.5Q183 542 273 542Q375 542 429 484.5Q483 427 483 326L483 107Q483 89 489.5 81.5Q496 74 511 74L532 74L532 0Q528 -1 519 -1.5Q510 -2 500 -2Q464 -2 441.5 9.5Q419 21 409 45.5Q399 70 399 110L409 108Q402 74 375 46.5Q348 19 308 3.5Q268 -12 223 -12ZM231 62Q284 62 321.5 82.5Q359 103 379 138.5Q399 174 399 218L399 256L227 224Q173 214 152.5 193.5Q132 173 132 140Q132 103 158.5 82.5Q185 62 231 62Z" transform="translate(114.752 0) scale(0.016 -0.016)"/><path d="M80 0L80 530L154 530L158 396L150 399Q160 467 193.5 498.5Q227 530 283 530L335 530L335 450L284 450Q244 450 217.5 435.5Q191 421 177.5 392.5Q164 364 164 320L164 0Z" transform="translate(123.504 0) scale(0.016 -0.016)"/><path d="M274 0Q202 0 167.5 33Q133 66 133 136L133 654L217 654L217 138Q217 102 233 88Q249 74 282 74L358 74L358 0ZM55 456L55 530L358 530L358 456Z" transform="translate(128.768 0) scale(0.016 -0.016)"/></g><rect x="22" y="151" width="272" height="75" rx="9" fill="#fafafa" stroke="#e5e5e5" stroke-width="1.5"/><g fill="#262626" transform="translate(39 178)"><path d="M370 -16Q274 -16 200 28.5Q126 73 84.5 155.5Q43 238 43 354Q43 468 84 551.5Q125 635 198.5 680.5Q272 726 371 726Q505 726 579 659Q653 592 676 473L551 467Q537 538 492.5 579Q448 620 371 620Q309 620 263 587.5Q217 555 192 495.5Q167 436 167 354Q167 272 192.5 212.5Q218 153 263.5 121.5Q309 90 370 90Q453 90 498 134.5Q543 179 555 257L680 250Q667 169 627.5 109Q588 49 523 16.5Q458 -16 370 -16Z" transform="translate(0 0) scale(0.016 -0.016)"/><path d="M73 0L73 533L181 533L186 388L176 391Q187 465 220.5 499Q254 533 311 533L361 533L361 431L311 431Q270 431 243.5 418Q217 405 203.5 379Q190 353 190 311L190 0Z" transform="translate(11.36 0) scale(0.016 -0.016)"/><path d="M297 -12Q219 -12 161 22.5Q103 57 71.5 119.5Q40 182 40 267Q40 351 71.5 413Q103 475 160 510Q217 545 294 545Q369 545 425 511.5Q481 478 512 414.5Q543 351 543 261L543 233L162 233Q166 159 202 122Q238 85 298 85Q344 85 373.5 105.5Q403 126 414 162L535 154Q514 78 451 33Q388 -12 297 -12ZM162 316L420 316Q416 384 381.5 416.5Q347 449 294 449Q241 449 206 415Q171 381 162 316Z" transform="translate(17.1488 0) scale(0.016 -0.016)"/><path d="M224 -12Q141 -12 90.5 26.5Q40 65 40 133Q40 202 82.5 241Q125 280 212 297L392 332Q392 391 365 421Q338 451 284 451Q235 451 207 428.5Q179 406 169 365L49 371Q65 453 126 499Q187 545 284 545Q395 545 452 487.5Q509 430 509 325L509 124Q509 104 516.5 96Q524 88 539 88L557 88L557 0Q551 -2 539 -3Q527 -4 514 -4Q480 -4 455 7Q430 18 416.5 44Q403 70 403 114L414 108Q406 73 379.5 45.5Q353 18 313 3Q273 -12 224 -12ZM246 76Q291 76 324 94Q357 112 374.5 143.5Q392 175 392 216L392 248L246 219Q200 210 181 192Q162 174 162 144Q162 112 184 94Q206 76 246 76Z" transform="translate(26.4768 0) scale(0.016 -0.016)"/><path d="M281 0Q204 0 167 36Q130 72 130 149L130 658L247 658L247 158Q247 121 263 107Q279 93 313 93L388 93L388 0ZM48 440L48 533L388 533L388 440Z" transform="translate(34.8864 0) scale(0.016 -0.016)"/><path d="M297 -12Q219 -12 161 22.5Q103 57 71.5 119.5Q40 182 40 267Q40 351 71.5 413Q103 475 160 510Q217 545 294 545Q369 545 425 511.5Q481 478 512 414.5Q543 351 543 261L543 233L162 233Q166 159 202 122Q238 85 298 85Q344 85 373.5 105.5Q403 126 414 162L535 154Q514 78 451 33Q388 -12 297 -12ZM162 316L420 316Q416 384 381.5 416.5Q347 449 294 449Q241 449 206 415Q171 381 162 316Z" transform="translate(41.344 0) scale(0.016 -0.016)"/><path d="M262 -12Q194 -12 144 22Q94 56 67 118.5Q40 181 40 267Q40 352 67 414.5Q94 477 144 511Q194 545 262 545Q317 545 360 522Q403 499 425 458L425 710L542 710L542 0L432 0L429 79Q407 36 362.5 12Q318 -12 262 -12ZM296 86Q337 86 366 107Q395 128 410 169Q425 210 425 267Q425 325 410 365Q395 405 366 426Q337 447 296 447Q234 447 198 399Q162 351 162 267Q162 184 198.5 135Q235 86 296 86Z" transform="translate(50.5152 0) scale(0.016 -0.016)"/><path d="" transform="translate(60.3472 0) scale(0.016 -0.016)"/><path d="M312 -16Q188 -16 120 42Q52 100 47 196L169 202Q175 143 213.5 116.5Q252 90 312 90Q353 90 386.5 101.5Q420 113 440.5 138.5Q461 164 461 204Q461 265 420 294.5Q379 324 311 324L251 324L251 422L311 422Q365 422 401 444.5Q437 467 437 520Q437 568 407 594Q377 620 314 620Q252 620 221 595.5Q190 571 183 530L61 537Q72 622 137 674Q202 726 314 726Q392 726 447 702Q502 678 531 634.5Q560 591 560 530Q560 466 518.5 425Q477 384 398 370L398 387Q485 375 534.5 325Q584 275 584 199Q584 131 550 83Q516 35 455 9.5Q394 -16 312 -16Z" transform="translate(64.17439999999999 0) scale(0.016 -0.016)"/><path d="" transform="translate(74.2752 0) scale(0.016 -0.016)"/><path d="M284 -12Q204 -12 151.5 11Q99 34 71.5 75Q44 116 40 168L161 174Q168 130 196 105.5Q224 81 284 81Q331 81 356.5 96.5Q382 112 382 145Q382 164 373 176.5Q364 189 338.5 198.5Q313 208 264 217Q185 231 140 251.5Q95 272 77 303Q59 334 59 378Q59 452 115.5 498.5Q172 545 279 545Q354 545 402.5 520.5Q451 496 475.5 456Q500 416 505 368L385 362Q384 387 372.5 407.5Q361 428 338 440Q315 452 277 452Q229 452 204.5 432.5Q180 413 180 383Q180 360 190 345.5Q200 331 223.5 322Q247 313 289 306Q370 294 417 273Q464 252 483.5 221Q503 190 503 146Q503 71 443 29.5Q383 -12 284 -12Z" transform="translate(78.10239999999999 0) scale(0.016 -0.016)"/><path d="M73 0L73 710L190 710L190 412L175 413Q184 458 208 487.5Q232 517 267 531Q302 545 344 545Q402 545 442 519.5Q482 494 502.5 448Q523 402 523 343L523 0L406 0L406 313Q406 381 383 414.5Q360 448 310 448Q255 448 222.5 413Q190 378 190 311L190 0Z" transform="translate(86.6608 0) scale(0.016 -0.016)"/><path d="M224 -12Q141 -12 90.5 26.5Q40 65 40 133Q40 202 82.5 241Q125 280 212 297L392 332Q392 391 365 421Q338 451 284 451Q235 451 207 428.5Q179 406 169 365L49 371Q65 453 126 499Q187 545 284 545Q395 545 452 487.5Q509 430 509 325L509 124Q509 104 516.5 96Q524 88 539 88L557 88L557 0Q551 -2 539 -3Q527 -4 514 -4Q480 -4 455 7Q430 18 416.5 44Q403 70 403 114L414 108Q406 73 379.5 45.5Q353 18 313 3Q273 -12 224 -12ZM246 76Q291 76 324 94Q357 112 374.5 143.5Q392 175 392 216L392 248L246 219Q200 210 181 192Q162 174 162 144Q162 112 184 94Q206 76 246 76Z" transform="translate(96.01279999999998 0) scale(0.016 -0.016)"/><path d="M73 -150L73 533L184 533L187 419L174 425Q194 484 240 514.5Q286 545 347 545Q424 545 474 507Q524 469 549 406Q574 343 574 267Q574 191 549 127.5Q524 64 473.5 26Q423 -12 346 -12Q306 -12 271 2Q236 16 211.5 42Q187 68 178 102L190 113L190 -150ZM322 86Q382 86 417.5 134Q453 182 453 267Q453 351 417.5 399Q382 447 322 447Q281 447 251.5 427Q222 407 206 366.5Q190 326 190 267Q190 207 205.5 166.5Q221 126 251 106Q281 86 322 86Z" transform="translate(105.13919999999999 0) scale(0.016 -0.016)"/><path d="M297 -12Q219 -12 161 22.5Q103 57 71.5 119.5Q40 182 40 267Q40 351 71.5 413Q103 475 160 510Q217 545 294 545Q369 545 425 511.5Q481 478 512 414.5Q543 351 543 261L543 233L162 233Q166 159 202 122Q238 85 298 85Q344 85 373.5 105.5Q403 126 414 162L535 154Q514 78 451 33Q388 -12 297 -12ZM162 316L420 316Q416 384 381.5 416.5Q347 449 294 449Q241 449 206 415Q171 381 162 316Z" transform="translate(114.81119999999999 0) scale(0.016 -0.016)"/><path d="M284 -12Q204 -12 151.5 11Q99 34 71.5 75Q44 116 40 168L161 174Q168 130 196 105.5Q224 81 284 81Q331 81 356.5 96.5Q382 112 382 145Q382 164 373 176.5Q364 189 338.5 198.5Q313 208 264 217Q185 231 140 251.5Q95 272 77 303Q59 334 59 378Q59 452 115.5 498.5Q172 545 279 545Q354 545 402.5 520.5Q451 496 475.5 456Q500 416 505 368L385 362Q384 387 372.5 407.5Q361 428 338 440Q315 452 277 452Q229 452 204.5 432.5Q180 413 180 383Q180 360 190 345.5Q200 331 223.5 322Q247 313 289 306Q370 294 417 273Q464 252 483.5 221Q503 190 503 146Q503 71 443 29.5Q383 -12 284 -12Z" transform="translate(123.98239999999998 0) scale(0.016 -0.016)"/></g><g fill="#737373" transform="translate(39 207)"><path d="M277 0L20 710L114 710L334 94L553 710L647 710L390 0Z" transform="translate(0 0) scale(0.014 -0.014)"/><path d="M80 0L80 530L164 530L164 0ZM78 613L78 711L166 711L166 613Z" transform="translate(9.03 0) scale(0.014 -0.014)"/><path d="M287 -12Q212 -12 157.5 22Q103 56 73.5 118.5Q44 181 44 265Q44 349 73.5 411Q103 473 156.5 507.5Q210 542 283 542Q352 542 405 509.5Q458 477 487.5 415Q517 353 517 264L517 239L132 239Q137 154 177.5 111Q218 68 287 68Q339 68 372.5 92.5Q406 117 419 157L509 150Q488 79 429.5 33.5Q371 -12 287 -12ZM132 313L425 313Q419 390 380.5 426Q342 462 283 462Q222 462 182.5 424.5Q143 387 132 313Z" transform="translate(12.306000000000001 0) scale(0.014 -0.014)"/><path d="M186 0L22 530L114 530L238 88L364 530L454 530L580 88L705 530L797 530L633 0L527 0L409 403L291 0Z" transform="translate(19.81 0) scale(0.014 -0.014)"/><path d="" transform="translate(31.276 0) scale(0.014 -0.014)"/><path d="M287 -12Q213 -12 158.5 22Q104 56 74 118.5Q44 181 44 265Q44 349 74 411Q104 473 158.5 507.5Q213 542 287 542Q348 542 395.5 520.5Q443 499 473 458Q503 417 512 358L424 352Q415 405 378 433.5Q341 462 287 462Q214 462 173 409.5Q132 357 132 265Q132 173 173 120.5Q214 68 287 68Q341 68 378 98Q415 128 424 188L512 182Q503 123 473 79.5Q443 36 395.5 12Q348 -12 287 -12Z" transform="translate(34.776 0) scale(0.014 -0.014)"/><path d="M223 -12Q141 -12 92.5 26Q44 64 44 132Q44 200 84 239Q124 278 211 294L399 329Q399 396 367.5 429Q336 462 273 462Q218 462 186 437.5Q154 413 142 367L53 374Q68 449 125.5 495.5Q183 542 273 542Q375 542 429 484.5Q483 427 483 326L483 107Q483 89 489.5 81.5Q496 74 511 74L532 74L532 0Q528 -1 519 -1.5Q510 -2 500 -2Q464 -2 441.5 9.5Q419 21 409 45.5Q399 70 399 110L409 108Q402 74 375 46.5Q348 19 308 3.5Q268 -12 223 -12ZM231 62Q284 62 321.5 82.5Q359 103 379 138.5Q399 174 399 218L399 256L227 224Q173 214 152.5 193.5Q132 173 132 140Q132 103 158.5 82.5Q185 62 231 62Z" transform="translate(42.476 0) scale(0.014 -0.014)"/><path d="M80 0L80 530L157 530L160 395L150 404Q160 451 185 481.5Q210 512 245.5 527Q281 542 322 542Q383 542 422.5 515Q462 488 481.5 442.5Q501 397 501 341L501 0L417 0L417 317Q417 366 405.5 399.5Q394 433 369 450.5Q344 468 304 468Q243 468 203.5 429.5Q164 391 164 317L164 0Z" transform="translate(50.134 0) scale(0.014 -0.014)"/><path d="M215 0L22 530L114 530L268 86L422 530L514 530L321 0Z" transform="translate(57.792 0) scale(0.014 -0.014)"/><path d="M223 -12Q141 -12 92.5 26Q44 64 44 132Q44 200 84 239Q124 278 211 294L399 329Q399 396 367.5 429Q336 462 273 462Q218 462 186 437.5Q154 413 142 367L53 374Q68 449 125.5 495.5Q183 542 273 542Q375 542 429 484.5Q483 427 483 326L483 107Q483 89 489.5 81.5Q496 74 511 74L532 74L532 0Q528 -1 519 -1.5Q510 -2 500 -2Q464 -2 441.5 9.5Q419 21 409 45.5Q399 70 399 110L409 108Q402 74 375 46.5Q348 19 308 3.5Q268 -12 223 -12ZM231 62Q284 62 321.5 82.5Q359 103 379 138.5Q399 174 399 218L399 256L227 224Q173 214 152.5 193.5Q132 173 132 140Q132 103 158.5 82.5Q185 62 231 62Z" transform="translate(64.988 0) scale(0.014 -0.014)"/><path d="M273 -12Q200 -12 150.5 11Q101 34 74.5 74.5Q48 115 44 167L132 173Q140 125 171.5 96.5Q203 68 273 68Q327 68 356.5 85.5Q386 103 386 142Q386 163 376.5 177Q367 191 339 201.5Q311 212 257 222Q183 236 141 257Q99 278 82 308Q65 338 65 380Q65 451 117.5 496.5Q170 542 266 542Q336 542 380.5 517.5Q425 493 448 454Q471 415 476 372L388 366Q386 391 373 413Q360 435 334 448.5Q308 462 264 462Q207 462 180 440Q153 418 153 384Q153 358 163.5 341.5Q174 325 200.5 314.5Q227 304 273 296Q351 283 395 263Q439 243 456.5 213.5Q474 184 474 142Q474 69 417.5 28.5Q361 -12 273 -12Z" transform="translate(72.618 0) scale(0.014 -0.014)"/><path d="" transform="translate(79.898 0) scale(0.014 -0.014)"/><path d="M287 -12Q213 -12 158.5 22Q104 56 74 118.5Q44 181 44 265Q44 349 74 411Q104 473 158.5 507.5Q213 542 287 542Q348 542 395.5 520.5Q443 499 473 458Q503 417 512 358L424 352Q415 405 378 433.5Q341 462 287 462Q214 462 173 409.5Q132 357 132 265Q132 173 173 120.5Q214 68 287 68Q341 68 378 98Q415 128 424 188L512 182Q503 123 473 79.5Q443 36 395.5 12Q348 -12 287 -12Z" transform="translate(83.398 0) scale(0.014 -0.014)"/><path d="M80 0L80 710L164 710L164 413L154 415Q164 459 188 487Q212 515 247 528.5Q282 542 324 542Q381 542 420.5 516.5Q460 491 480.5 445.5Q501 400 501 341L501 0L417 0L417 317Q417 394 389.5 431Q362 468 306 468Q242 468 203 429Q164 390 164 316L164 0Z" transform="translate(90.902 0) scale(0.014 -0.014)"/><path d="M223 -12Q141 -12 92.5 26Q44 64 44 132Q44 200 84 239Q124 278 211 294L399 329Q399 396 367.5 429Q336 462 273 462Q218 462 186 437.5Q154 413 142 367L53 374Q68 449 125.5 495.5Q183 542 273 542Q375 542 429 484.5Q483 427 483 326L483 107Q483 89 489.5 81.5Q496 74 511 74L532 74L532 0Q528 -1 519 -1.5Q510 -2 500 -2Q464 -2 441.5 9.5Q419 21 409 45.5Q399 70 399 110L409 108Q402 74 375 46.5Q348 19 308 3.5Q268 -12 223 -12ZM231 62Q284 62 321.5 82.5Q359 103 379 138.5Q399 174 399 218L399 256L227 224Q173 214 152.5 193.5Q132 173 132 140Q132 103 158.5 82.5Q185 62 231 62Z" transform="translate(98.896 0) scale(0.014 -0.014)"/><path d="M80 0L80 530L157 530L160 395L150 404Q160 451 185 481.5Q210 512 245.5 527Q281 542 322 542Q383 542 422.5 515Q462 488 481.5 442.5Q501 397 501 341L501 0L417 0L417 317Q417 366 405.5 399.5Q394 433 369 450.5Q344 468 304 468Q243 468 203.5 429.5Q164 391 164 317L164 0Z" transform="translate(106.554 0) scale(0.014 -0.014)"/><path d="M281 -162Q224 -162 178 -143Q132 -124 101 -89Q70 -54 59 -8L147 -2Q159 -39 189.5 -60.5Q220 -82 281 -82Q353 -82 391.5 -53Q430 -24 430 34L430 120Q411 78 369 53Q327 28 275 28Q208 28 155.5 61Q103 94 73.5 152Q44 210 44 285Q44 361 73 418.5Q102 476 153.5 509Q205 542 271 542Q327 542 371.5 516Q416 490 434 446L434 530L514 530L514 36Q514 -26 486 -70.5Q458 -115 406 -138.5Q354 -162 281 -162ZM279 108Q347 108 388 155.5Q429 203 430 285Q431 340 412.5 379.5Q394 419 359.5 440.5Q325 462 279 462Q209 462 170.5 414.5Q132 367 132 285Q132 203 171.5 155.5Q211 108 279 108Z" transform="translate(114.52 0) scale(0.014 -0.014)"/><path d="M287 -12Q212 -12 157.5 22Q103 56 73.5 118.5Q44 181 44 265Q44 349 73.5 411Q103 473 156.5 507.5Q210 542 283 542Q352 542 405 509.5Q458 477 487.5 415Q517 353 517 264L517 239L132 239Q137 154 177.5 111Q218 68 287 68Q339 68 372.5 92.5Q406 117 419 157L509 150Q488 79 429.5 33.5Q371 -12 287 -12ZM132 313L425 313Q419 390 380.5 426Q342 462 283 462Q222 462 182.5 424.5Q143 387 132 313Z" transform="translate(122.696 0) scale(0.014 -0.014)"/><path d="M273 -12Q200 -12 150.5 11Q101 34 74.5 74.5Q48 115 44 167L132 173Q140 125 171.5 96.5Q203 68 273 68Q327 68 356.5 85.5Q386 103 386 142Q386 163 376.5 177Q367 191 339 201.5Q311 212 257 222Q183 236 141 257Q99 278 82 308Q65 338 65 380Q65 451 117.5 496.5Q170 542 266 542Q336 542 380.5 517.5Q425 493 448 454Q471 415 476 372L388 366Q386 391 373 413Q360 435 334 448.5Q308 462 264 462Q207 462 180 440Q153 418 153 384Q153 358 163.5 341.5Q174 325 200.5 314.5Q227 304 273 296Q351 283 395 263Q439 243 456.5 213.5Q474 184 474 142Q474 69 417.5 28.5Q361 -12 273 -12Z" transform="translate(130.41 0) scale(0.014 -0.014)"/></g><rect x="22" y="261" width="332" height="48" rx="9" fill="#fff" stroke="#e5e5e5" stroke-width="1.5"/><g fill="#737373" transform="translate(37 291)"><path d="M92 0L92 710L312 710Q476 710 564.5 617.5Q653 525 653 354Q653 184 566 92Q479 0 318 0ZM178 84L312 84Q437 84 500 151.5Q563 219 563 354Q563 491 500 558.5Q437 626 312 626L178 626Z" transform="translate(0 0) scale(0.015 -0.015)"/><path d="M287 -12Q212 -12 157.5 22Q103 56 73.5 118.5Q44 181 44 265Q44 349 73.5 411Q103 473 156.5 507.5Q210 542 283 542Q352 542 405 509.5Q458 477 487.5 415Q517 353 517 264L517 239L132 239Q137 154 177.5 111Q218 68 287 68Q339 68 372.5 92.5Q406 117 419 157L509 150Q488 79 429.5 33.5Q371 -12 287 -12ZM132 313L425 313Q419 390 380.5 426Q342 462 283 462Q222 462 182.5 424.5Q143 387 132 313Z" transform="translate(10.62 0) scale(0.015 -0.015)"/><path d="M273 -12Q200 -12 150.5 11Q101 34 74.5 74.5Q48 115 44 167L132 173Q140 125 171.5 96.5Q203 68 273 68Q327 68 356.5 85.5Q386 103 386 142Q386 163 376.5 177Q367 191 339 201.5Q311 212 257 222Q183 236 141 257Q99 278 82 308Q65 338 65 380Q65 451 117.5 496.5Q170 542 266 542Q336 542 380.5 517.5Q425 493 448 454Q471 415 476 372L388 366Q386 391 373 413Q360 435 334 448.5Q308 462 264 462Q207 462 180 440Q153 418 153 384Q153 358 163.5 341.5Q174 325 200.5 314.5Q227 304 273 296Q351 283 395 263Q439 243 456.5 213.5Q474 184 474 142Q474 69 417.5 28.5Q361 -12 273 -12Z" transform="translate(18.884999999999998 0) scale(0.015 -0.015)"/><path d="M287 -12Q213 -12 158.5 22Q104 56 74 118.5Q44 181 44 265Q44 349 74 411Q104 473 158.5 507.5Q213 542 287 542Q348 542 395.5 520.5Q443 499 473 458Q503 417 512 358L424 352Q415 405 378 433.5Q341 462 287 462Q214 462 173 409.5Q132 357 132 265Q132 173 173 120.5Q214 68 287 68Q341 68 378 98Q415 128 424 188L512 182Q503 123 473 79.5Q443 36 395.5 12Q348 -12 287 -12Z" transform="translate(26.535 0) scale(0.015 -0.015)"/><path d="M80 0L80 530L154 530L158 396L150 399Q160 467 193.5 498.5Q227 530 283 530L335 530L335 450L284 450Q244 450 217.5 435.5Q191 421 177.5 392.5Q164 364 164 320L164 0Z" transform="translate(34.574999999999996 0) scale(0.015 -0.015)"/><path d="M80 0L80 530L164 530L164 0ZM78 613L78 711L166 711L166 613Z" transform="translate(39.809999999999995 0) scale(0.015 -0.015)"/><path d="M323 -12Q268 -12 225 12.5Q182 37 159 80L156 0L80 0L80 710L164 710L164 456Q184 489 226 515.5Q268 542 323 542Q393 542 444 508Q495 474 523 412Q551 350 551 265Q551 180 523 118Q495 56 444 22Q393 -12 323 -12ZM318 68Q385 68 424 121Q463 174 463 265Q463 357 424 409.5Q385 462 320 462Q271 462 236 438.5Q201 415 182.5 371Q164 327 164 265Q164 205 182.5 160.5Q201 116 235.5 92Q270 68 318 68Z" transform="translate(43.17 0) scale(0.015 -0.015)"/><path d="M287 -12Q212 -12 157.5 22Q103 56 73.5 118.5Q44 181 44 265Q44 349 73.5 411Q103 473 156.5 507.5Q210 542 283 542Q352 542 405 509.5Q458 477 487.5 415Q517 353 517 264L517 239L132 239Q137 154 177.5 111Q218 68 287 68Q339 68 372.5 92.5Q406 117 419 157L509 150Q488 79 429.5 33.5Q371 -12 287 -12ZM132 313L425 313Q419 390 380.5 426Q342 462 283 462Q222 462 182.5 424.5Q143 387 132 313Z" transform="translate(51.945 0) scale(0.015 -0.015)"/><path d="" transform="translate(60.36 0) scale(0.015 -0.015)"/><path d="M223 -12Q141 -12 92.5 26Q44 64 44 132Q44 200 84 239Q124 278 211 294L399 329Q399 396 367.5 429Q336 462 273 462Q218 462 186 437.5Q154 413 142 367L53 374Q68 449 125.5 495.5Q183 542 273 542Q375 542 429 484.5Q483 427 483 326L483 107Q483 89 489.5 81.5Q496 74 511 74L532 74L532 0Q528 -1 519 -1.5Q510 -2 500 -2Q464 -2 441.5 9.5Q419 21 409 45.5Q399 70 399 110L409 108Q402 74 375 46.5Q348 19 308 3.5Q268 -12 223 -12ZM231 62Q284 62 321.5 82.5Q359 103 379 138.5Q399 174 399 218L399 256L227 224Q173 214 152.5 193.5Q132 173 132 140Q132 103 158.5 82.5Q185 62 231 62Z" transform="translate(64.11 0) scale(0.015 -0.015)"/><path d="" transform="translate(72.375 0) scale(0.015 -0.015)"/><path d="M287 -12Q213 -12 158.5 22Q104 56 74 118.5Q44 181 44 265Q44 349 74 411Q104 473 158.5 507.5Q213 542 287 542Q348 542 395.5 520.5Q443 499 473 458Q503 417 512 358L424 352Q415 405 378 433.5Q341 462 287 462Q214 462 173 409.5Q132 357 132 265Q132 173 173 120.5Q214 68 287 68Q341 68 378 98Q415 128 424 188L512 182Q503 123 473 79.5Q443 36 395.5 12Q348 -12 287 -12Z" transform="translate(76.125 0) scale(0.015 -0.015)"/><path d="M80 0L80 710L164 710L164 413L154 415Q164 459 188 487Q212 515 247 528.5Q282 542 324 542Q381 542 420.5 516.5Q460 491 480.5 445.5Q501 400 501 341L501 0L417 0L417 317Q417 394 389.5 431Q362 468 306 468Q242 468 203 429Q164 390 164 316L164 0Z" transform="translate(84.16499999999999 0) scale(0.015 -0.015)"/><path d="M223 -12Q141 -12 92.5 26Q44 64 44 132Q44 200 84 239Q124 278 211 294L399 329Q399 396 367.5 429Q336 462 273 462Q218 462 186 437.5Q154 413 142 367L53 374Q68 449 125.5 495.5Q183 542 273 542Q375 542 429 484.5Q483 427 483 326L483 107Q483 89 489.5 81.5Q496 74 511 74L532 74L532 0Q528 -1 519 -1.5Q510 -2 500 -2Q464 -2 441.5 9.5Q419 21 409 45.5Q399 70 399 110L409 108Q402 74 375 46.5Q348 19 308 3.5Q268 -12 223 -12ZM231 62Q284 62 321.5 82.5Q359 103 379 138.5Q399 174 399 218L399 256L227 224Q173 214 152.5 193.5Q132 173 132 140Q132 103 158.5 82.5Q185 62 231 62Z" transform="translate(92.72999999999999 0) scale(0.015 -0.015)"/><path d="M80 0L80 530L157 530L160 395L150 404Q160 451 185 481.5Q210 512 245.5 527Q281 542 322 542Q383 542 422.5 515Q462 488 481.5 442.5Q501 397 501 341L501 0L417 0L417 317Q417 366 405.5 399.5Q394 433 369 450.5Q344 468 304 468Q243 468 203.5 429.5Q164 391 164 317L164 0Z" transform="translate(100.935 0) scale(0.015 -0.015)"/><path d="M281 -162Q224 -162 178 -143Q132 -124 101 -89Q70 -54 59 -8L147 -2Q159 -39 189.5 -60.5Q220 -82 281 -82Q353 -82 391.5 -53Q430 -24 430 34L430 120Q411 78 369 53Q327 28 275 28Q208 28 155.5 61Q103 94 73.5 152Q44 210 44 285Q44 361 73 418.5Q102 476 153.5 509Q205 542 271 542Q327 542 371.5 516Q416 490 434 446L434 530L514 530L514 36Q514 -26 486 -70.5Q458 -115 406 -138.5Q354 -162 281 -162ZM279 108Q347 108 388 155.5Q429 203 430 285Q431 340 412.5 379.5Q394 419 359.5 440.5Q325 462 279 462Q209 462 170.5 414.5Q132 367 132 285Q132 203 171.5 155.5Q211 108 279 108Z" transform="translate(109.47 0) scale(0.015 -0.015)"/><path d="M287 -12Q212 -12 157.5 22Q103 56 73.5 118.5Q44 181 44 265Q44 349 73.5 411Q103 473 156.5 507.5Q210 542 283 542Q352 542 405 509.5Q458 477 487.5 415Q517 353 517 264L517 239L132 239Q137 154 177.5 111Q218 68 287 68Q339 68 372.5 92.5Q406 117 419 157L509 150Q488 79 429.5 33.5Q371 -12 287 -12ZM132 313L425 313Q419 390 380.5 426Q342 462 283 462Q222 462 182.5 424.5Q143 387 132 313Z" transform="translate(118.22999999999999 0) scale(0.015 -0.015)"/><path d="M44 0L44 113L157 113L157 0ZM229 0L229 113L342 113L342 0ZM414 0L414 113L527 113L527 0Z" transform="translate(126.645 0) scale(0.015 -0.015)"/></g><circle cx="329" cy="285" r="12" fill="#75648f"/><path d="M325 286L329 282L333 286M329 282V290" fill="none" stroke="white" stroke-width="1.5"/></g>
    <path d="M64 550L1136 550" stroke="#e5e5e5" stroke-width="2" fill="none" stroke-linecap="round"/>
    <g fill="#737373" transform="translate(64 584)"><path d="M92 0L92 710L361 710Q436 710 490 684Q544 658 573.5 609.5Q603 561 603 495Q603 447 580.5 409.5Q558 372 523 350Q488 328 450 326L444 335Q509 335 546.5 305Q584 275 590 209L610 0L523 0L505 200Q501 244 473.5 265Q446 286 384 286L178 286L178 0ZM178 370L372 370Q437 370 475 403Q513 436 513 497Q513 559 474 592.5Q435 626 361 626L178 626Z" transform="translate(0 0) scale(0.016 -0.016)"/><path d="M80 0L80 710L164 710L164 413L154 415Q164 459 188 487Q212 515 247 528.5Q282 542 324 542Q381 542 420.5 516.5Q460 491 480.5 445.5Q501 400 501 341L501 0L417 0L417 317Q417 394 389.5 431Q362 468 306 468Q242 468 203 429Q164 390 164 316L164 0Z" transform="translate(10.752 0) scale(0.016 -0.016)"/><path d="M103 -150L103 -76L164 -76Q192 -76 205.5 -67.5Q219 -59 226 -40L245 10L216 10L22 530L114 530L272 88L423 530L515 530L300 -67Q285 -110 255 -130Q225 -150 172 -150Z" transform="translate(19.504 0) scale(0.016 -0.016)"/><path d="M80 0L80 530L157 530L160 396L148 400Q157 444 179.5 475.5Q202 507 235 524.5Q268 542 308 542Q377 542 420.5 504Q464 466 475 398L459 399Q467 445 488.5 476.5Q510 508 544 525Q578 542 622 542Q679 542 718 518.5Q757 495 777 450Q797 405 797 341L797 0L713 0L713 323Q713 395 685 431.5Q657 468 602 468Q565 468 537.5 450Q510 432 495 398.5Q480 365 480 317L480 0L396 0L396 317Q396 388 371 428Q346 468 287 468Q250 468 222.5 450Q195 432 179.5 398Q164 364 164 317L164 0Z" transform="translate(27.712 0) scale(0.016 -0.016)"/><path d="M287 -12Q212 -12 157.5 22Q103 56 73.5 118.5Q44 181 44 265Q44 349 73.5 411Q103 473 156.5 507.5Q210 542 283 542Q352 542 405 509.5Q458 477 487.5 415Q517 353 517 264L517 239L132 239Q137 154 177.5 111Q218 68 287 68Q339 68 372.5 92.5Q406 117 419 157L509 150Q488 79 429.5 33.5Q371 -12 287 -12ZM132 313L425 313Q419 390 380.5 426Q342 462 283 462Q222 462 182.5 424.5Q143 387 132 313Z" transform="translate(41.552 0) scale(0.016 -0.016)"/></g>
    <g fill="#737373" transform="translate(814 584)"><path d="M369 -16Q268 -16 195.5 28.5Q123 73 84 156Q45 239 45 354Q45 469 84 552.5Q123 636 195.5 681Q268 726 369 726Q471 726 543.5 681Q616 636 655 552.5Q694 469 694 354Q694 239 655 156Q616 73 543.5 28.5Q471 -16 369 -16ZM369 68Q443 68 495.5 102Q548 136 576 200Q604 264 604 354Q604 444 576 508.5Q548 573 495.5 607.5Q443 642 369 642Q296 642 243.5 607.5Q191 573 163 508.5Q135 444 135 354Q135 264 163 200Q191 136 243.5 102Q296 68 369 68Z" transform="translate(0 0) scale(0.015 -0.015)"/><path d="M80 0L80 530L157 530L160 395L150 404Q160 451 185 481.5Q210 512 245.5 527Q281 542 322 542Q383 542 422.5 515Q462 488 481.5 442.5Q501 397 501 341L501 0L417 0L417 317Q417 366 405.5 399.5Q394 433 369 450.5Q344 468 304 468Q243 468 203.5 429.5Q164 391 164 317L164 0Z" transform="translate(11.084999999999999 0) scale(0.015 -0.015)"/><path d="M184 0Q138 0 109 24Q80 48 80 100L80 710L164 710L164 107Q164 91 172.5 82.5Q181 74 197 74L243 74L243 0Z" transform="translate(19.575 0) scale(0.015 -0.015)"/><path d="M80 0L80 530L164 530L164 0ZM78 613L78 711L166 711L166 613Z" transform="translate(23.46 0) scale(0.015 -0.015)"/><path d="M80 0L80 530L157 530L160 395L150 404Q160 451 185 481.5Q210 512 245.5 527Q281 542 322 542Q383 542 422.5 515Q462 488 481.5 442.5Q501 397 501 341L501 0L417 0L417 317Q417 366 405.5 399.5Q394 433 369 450.5Q344 468 304 468Q243 468 203.5 429.5Q164 391 164 317L164 0Z" transform="translate(27.209999999999997 0) scale(0.015 -0.015)"/><path d="M287 -12Q212 -12 157.5 22Q103 56 73.5 118.5Q44 181 44 265Q44 349 73.5 411Q103 473 156.5 507.5Q210 542 283 542Q352 542 405 509.5Q458 477 487.5 415Q517 353 517 264L517 239L132 239Q137 154 177.5 111Q218 68 287 68Q339 68 372.5 92.5Q406 117 419 157L509 150Q488 79 429.5 33.5Q371 -12 287 -12ZM132 313L425 313Q419 390 380.5 426Q342 462 283 462Q222 462 182.5 424.5Q143 387 132 313Z" transform="translate(35.745 0) scale(0.015 -0.015)"/><path d="" transform="translate(44.16 0) scale(0.015 -0.015)"/><path d="M186 0L22 530L114 530L238 88L364 530L454 530L580 88L705 530L797 530L633 0L527 0L409 403L291 0Z" transform="translate(47.91 0) scale(0.015 -0.015)"/><path d="M80 0L80 710L164 710L164 413L154 415Q164 459 188 487Q212 515 247 528.5Q282 542 324 542Q381 542 420.5 516.5Q460 491 480.5 445.5Q501 400 501 341L501 0L417 0L417 317Q417 394 389.5 431Q362 468 306 468Q242 468 203 429Q164 390 164 316L164 0Z" transform="translate(60.044999999999995 0) scale(0.015 -0.015)"/><path d="M80 0L80 530L164 530L164 0ZM78 613L78 711L166 711L166 613Z" transform="translate(68.67 0) scale(0.015 -0.015)"/><path d="M274 0Q202 0 167.5 33Q133 66 133 136L133 654L217 654L217 138Q217 102 233 88Q249 74 282 74L358 74L358 0ZM55 456L55 530L358 530L358 456Z" transform="translate(71.73 0) scale(0.015 -0.015)"/><path d="M287 -12Q212 -12 157.5 22Q103 56 73.5 118.5Q44 181 44 265Q44 349 73.5 411Q103 473 156.5 507.5Q210 542 283 542Q352 542 405 509.5Q458 477 487.5 415Q517 353 517 264L517 239L132 239Q137 154 177.5 111Q218 68 287 68Q339 68 372.5 92.5Q406 117 419 157L509 150Q488 79 429.5 33.5Q371 -12 287 -12ZM132 313L425 313Q419 390 380.5 426Q342 462 283 462Q222 462 182.5 424.5Q143 387 132 313Z" transform="translate(77.36999999999999 0) scale(0.015 -0.015)"/><path d="M323 -12Q268 -12 225 12.5Q182 37 159 80L156 0L80 0L80 710L164 710L164 456Q184 489 226 515.5Q268 542 323 542Q393 542 444 508Q495 474 523 412Q551 350 551 265Q551 180 523 118Q495 56 444 22Q393 -12 323 -12ZM318 68Q385 68 424 121Q463 174 463 265Q463 357 424 409.5Q385 462 320 462Q271 462 236 438.5Q201 415 182.5 371Q164 327 164 265Q164 205 182.5 160.5Q201 116 235.5 92Q270 68 318 68Z" transform="translate(85.63499999999999 0) scale(0.015 -0.015)"/><path d="M287 -12Q214 -12 159 22Q104 56 74 118.5Q44 181 44 265Q44 350 74 412Q104 474 159 508Q214 542 287 542Q360 542 414.5 508Q469 474 499 412Q529 350 529 265Q529 181 499 118.5Q469 56 414.5 22Q360 -12 287 -12ZM287 68Q360 68 400.5 120.5Q441 173 441 265Q441 357 400.5 409.5Q360 462 287 462Q214 462 173 409.5Q132 357 132 265Q132 173 173 120.5Q214 68 287 68Z" transform="translate(94.41 0) scale(0.015 -0.015)"/><path d="M223 -12Q141 -12 92.5 26Q44 64 44 132Q44 200 84 239Q124 278 211 294L399 329Q399 396 367.5 429Q336 462 273 462Q218 462 186 437.5Q154 413 142 367L53 374Q68 449 125.5 495.5Q183 542 273 542Q375 542 429 484.5Q483 427 483 326L483 107Q483 89 489.5 81.5Q496 74 511 74L532 74L532 0Q528 -1 519 -1.5Q510 -2 500 -2Q464 -2 441.5 9.5Q419 21 409 45.5Q399 70 399 110L409 108Q402 74 375 46.5Q348 19 308 3.5Q268 -12 223 -12ZM231 62Q284 62 321.5 82.5Q359 103 379 138.5Q399 174 399 218L399 256L227 224Q173 214 152.5 193.5Q132 173 132 140Q132 103 158.5 82.5Q185 62 231 62Z" transform="translate(103.065 0) scale(0.015 -0.015)"/><path d="M80 0L80 530L154 530L158 396L150 399Q160 467 193.5 498.5Q227 530 283 530L335 530L335 450L284 450Q244 450 217.5 435.5Q191 421 177.5 392.5Q164 364 164 320L164 0Z" transform="translate(111.27 0) scale(0.015 -0.015)"/><path d="M268 -12Q199 -12 148.5 22Q98 56 71 118Q44 180 44 265Q44 350 71 412Q98 474 148.5 508Q199 542 268 542Q321 542 365 519.5Q409 497 431 456L431 710L515 710L515 0L439 0L436 80Q414 37 369 12.5Q324 -12 268 -12ZM285 68Q332 68 364.5 92Q397 116 414 160.5Q431 205 431 265Q431 327 414 371Q397 415 364.5 438.5Q332 462 285 462Q215 462 173.5 409.5Q132 357 132 265Q132 174 173.5 121Q215 68 285 68Z" transform="translate(116.35499999999999 0) scale(0.015 -0.015)"/><path d="" transform="translate(125.28 0) scale(0.015 -0.015)"/><path d="M44 248L44 361L157 361L157 248Z" transform="translate(129.03 0) scale(0.015 -0.015)"/><path d="" transform="translate(132.045 0) scale(0.015 -0.015)"/><path d="M364 -16Q269 -16 197 28.5Q125 73 85 156Q45 239 45 354Q45 469 85 552.5Q125 636 197 681Q269 726 364 726Q493 726 564 661Q635 596 657 484L566 478Q551 554 502 598Q453 642 364 642Q296 642 244.5 607.5Q193 573 164 508.5Q135 444 135 354Q135 264 164 200Q193 136 244.5 102Q296 68 364 68Q457 68 508 116.5Q559 165 572 248L663 242Q650 165 612 107Q574 49 511.5 16.5Q449 -16 364 -16Z" transform="translate(135.795 0) scale(0.015 -0.015)"/><path d="M223 -12Q141 -12 92.5 26Q44 64 44 132Q44 200 84 239Q124 278 211 294L399 329Q399 396 367.5 429Q336 462 273 462Q218 462 186 437.5Q154 413 142 367L53 374Q68 449 125.5 495.5Q183 542 273 542Q375 542 429 484.5Q483 427 483 326L483 107Q483 89 489.5 81.5Q496 74 511 74L532 74L532 0Q528 -1 519 -1.5Q510 -2 500 -2Q464 -2 441.5 9.5Q419 21 409 45.5Q399 70 399 110L409 108Q402 74 375 46.5Q348 19 308 3.5Q268 -12 223 -12ZM231 62Q284 62 321.5 82.5Q359 103 379 138.5Q399 174 399 218L399 256L227 224Q173 214 152.5 193.5Q132 173 132 140Q132 103 158.5 82.5Q185 62 231 62Z" transform="translate(146.28 0) scale(0.015 -0.015)"/><path d="M80 0L80 530L157 530L160 395L150 404Q160 451 185 481.5Q210 512 245.5 527Q281 542 322 542Q383 542 422.5 515Q462 488 481.5 442.5Q501 397 501 341L501 0L417 0L417 317Q417 366 405.5 399.5Q394 433 369 450.5Q344 468 304 468Q243 468 203.5 429.5Q164 391 164 317L164 0Z" transform="translate(154.48499999999999 0) scale(0.015 -0.015)"/><path d="M215 0L22 530L114 530L268 86L422 530L514 530L321 0Z" transform="translate(162.69 0) scale(0.015 -0.015)"/><path d="M223 -12Q141 -12 92.5 26Q44 64 44 132Q44 200 84 239Q124 278 211 294L399 329Q399 396 367.5 429Q336 462 273 462Q218 462 186 437.5Q154 413 142 367L53 374Q68 449 125.5 495.5Q183 542 273 542Q375 542 429 484.5Q483 427 483 326L483 107Q483 89 489.5 81.5Q496 74 511 74L532 74L532 0Q528 -1 519 -1.5Q510 -2 500 -2Q464 -2 441.5 9.5Q419 21 409 45.5Q399 70 399 110L409 108Q402 74 375 46.5Q348 19 308 3.5Q268 -12 223 -12ZM231 62Q284 62 321.5 82.5Q359 103 379 138.5Q399 174 399 218L399 256L227 224Q173 214 152.5 193.5Q132 173 132 140Q132 103 158.5 82.5Q185 62 231 62Z" transform="translate(170.4 0) scale(0.015 -0.015)"/><path d="M273 -12Q200 -12 150.5 11Q101 34 74.5 74.5Q48 115 44 167L132 173Q140 125 171.5 96.5Q203 68 273 68Q327 68 356.5 85.5Q386 103 386 142Q386 163 376.5 177Q367 191 339 201.5Q311 212 257 222Q183 236 141 257Q99 278 82 308Q65 338 65 380Q65 451 117.5 496.5Q170 542 266 542Q336 542 380.5 517.5Q425 493 448 454Q471 415 476 372L388 366Q386 391 373 413Q360 435 334 448.5Q308 462 264 462Q207 462 180 440Q153 418 153 384Q153 358 163.5 341.5Q174 325 200.5 314.5Q227 304 273 296Q351 283 395 263Q439 243 456.5 213.5Q474 184 474 142Q474 69 417.5 28.5Q361 -12 273 -12Z" transform="translate(178.575 0) scale(0.015 -0.015)"/><path d="" transform="translate(186.375 0) scale(0.015 -0.015)"/><path d="M223 -12Q141 -12 92.5 26Q44 64 44 132Q44 200 84 239Q124 278 211 294L399 329Q399 396 367.5 429Q336 462 273 462Q218 462 186 437.5Q154 413 142 367L53 374Q68 449 125.5 495.5Q183 542 273 542Q375 542 429 484.5Q483 427 483 326L483 107Q483 89 489.5 81.5Q496 74 511 74L532 74L532 0Q528 -1 519 -1.5Q510 -2 500 -2Q464 -2 441.5 9.5Q419 21 409 45.5Q399 70 399 110L409 108Q402 74 375 46.5Q348 19 308 3.5Q268 -12 223 -12ZM231 62Q284 62 321.5 82.5Q359 103 379 138.5Q399 174 399 218L399 256L227 224Q173 214 152.5 193.5Q132 173 132 140Q132 103 158.5 82.5Q185 62 231 62Z" transform="translate(190.125 0) scale(0.015 -0.015)"/><path d="M273 -12Q200 -12 150.5 11Q101 34 74.5 74.5Q48 115 44 167L132 173Q140 125 171.5 96.5Q203 68 273 68Q327 68 356.5 85.5Q386 103 386 142Q386 163 376.5 177Q367 191 339 201.5Q311 212 257 222Q183 236 141 257Q99 278 82 308Q65 338 65 380Q65 451 117.5 496.5Q170 542 266 542Q336 542 380.5 517.5Q425 493 448 454Q471 415 476 372L388 366Q386 391 373 413Q360 435 334 448.5Q308 462 264 462Q207 462 180 440Q153 418 153 384Q153 358 163.5 341.5Q174 325 200.5 314.5Q227 304 273 296Q351 283 395 263Q439 243 456.5 213.5Q474 184 474 142Q474 69 417.5 28.5Q361 -12 273 -12Z" transform="translate(198.29999999999998 0) scale(0.015 -0.015)"/><path d="M273 -12Q200 -12 150.5 11Q101 34 74.5 74.5Q48 115 44 167L132 173Q140 125 171.5 96.5Q203 68 273 68Q327 68 356.5 85.5Q386 103 386 142Q386 163 376.5 177Q367 191 339 201.5Q311 212 257 222Q183 236 141 257Q99 278 82 308Q65 338 65 380Q65 451 117.5 496.5Q170 542 266 542Q336 542 380.5 517.5Q425 493 448 454Q471 415 476 372L388 366Q386 391 373 413Q360 435 334 448.5Q308 462 264 462Q207 462 180 440Q153 418 153 384Q153 358 163.5 341.5Q174 325 200.5 314.5Q227 304 273 296Q351 283 395 263Q439 243 456.5 213.5Q474 184 474 142Q474 69 417.5 28.5Q361 -12 273 -12Z" transform="translate(205.95 0) scale(0.015 -0.015)"/><path d="M80 0L80 530L164 530L164 0ZM78 613L78 711L166 711L166 613Z" transform="translate(213.6 0) scale(0.015 -0.015)"/><path d="M273 -12Q200 -12 150.5 11Q101 34 74.5 74.5Q48 115 44 167L132 173Q140 125 171.5 96.5Q203 68 273 68Q327 68 356.5 85.5Q386 103 386 142Q386 163 376.5 177Q367 191 339 201.5Q311 212 257 222Q183 236 141 257Q99 278 82 308Q65 338 65 380Q65 451 117.5 496.5Q170 542 266 542Q336 542 380.5 517.5Q425 493 448 454Q471 415 476 372L388 366Q386 391 373 413Q360 435 334 448.5Q308 462 264 462Q207 462 180 440Q153 418 153 384Q153 358 163.5 341.5Q174 325 200.5 314.5Q227 304 273 296Q351 283 395 263Q439 243 456.5 213.5Q474 184 474 142Q474 69 417.5 28.5Q361 -12 273 -12Z" transform="translate(217.10999999999999 0) scale(0.015 -0.015)"/><path d="M274 0Q202 0 167.5 33Q133 66 133 136L133 654L217 654L217 138Q217 102 233 88Q249 74 282 74L358 74L358 0ZM55 456L55 530L358 530L358 456Z" transform="translate(224.45999999999998 0) scale(0.015 -0.015)"/><path d="M223 -12Q141 -12 92.5 26Q44 64 44 132Q44 200 84 239Q124 278 211 294L399 329Q399 396 367.5 429Q336 462 273 462Q218 462 186 437.5Q154 413 142 367L53 374Q68 449 125.5 495.5Q183 542 273 542Q375 542 429 484.5Q483 427 483 326L483 107Q483 89 489.5 81.5Q496 74 511 74L532 74L532 0Q528 -1 519 -1.5Q510 -2 500 -2Q464 -2 441.5 9.5Q419 21 409 45.5Q399 70 399 110L409 108Q402 74 375 46.5Q348 19 308 3.5Q268 -12 223 -12ZM231 62Q284 62 321.5 82.5Q359 103 379 138.5Q399 174 399 218L399 256L227 224Q173 214 152.5 193.5Q132 173 132 140Q132 103 158.5 82.5Q185 62 231 62Z" transform="translate(230.19 0) scale(0.015 -0.015)"/><path d="M80 0L80 530L157 530L160 395L150 404Q160 451 185 481.5Q210 512 245.5 527Q281 542 322 542Q383 542 422.5 515Q462 488 481.5 442.5Q501 397 501 341L501 0L417 0L417 317Q417 366 405.5 399.5Q394 433 369 450.5Q344 468 304 468Q243 468 203.5 429.5Q164 391 164 317L164 0Z" transform="translate(238.39499999999998 0) scale(0.015 -0.015)"/><path d="M274 0Q202 0 167.5 33Q133 66 133 136L133 654L217 654L217 138Q217 102 233 88Q249 74 282 74L358 74L358 0ZM55 456L55 530L358 530L358 456Z" transform="translate(246.51 0) scale(0.015 -0.015)"/></g>
  </svg>